<?xml version="1.0" encoding="utf-8" standalone="no"?>
<!DOCTYPE svg PUBLIC "-//W3C//DTD SVG 1.1//EN"
  "http://www.w3.org/Graphics/SVG/1.1/DTD/svg11.dtd">
<svg xmlns:xlink="http://www.w3.org/1999/xlink" width="514.756484pt" height="345.978906pt" viewBox="0 0 514.756484 345.978906" xmlns="http://www.w3.org/2000/svg" version="1.1">
 <metadata>
  <rdf:RDF xmlns:dc="http://purl.org/dc/elements/1.1/" xmlns:cc="http://creativecommons.org/ns#" xmlns:rdf="http://www.w3.org/1999/02/22-rdf-syntax-ns#">
   <cc:Work>
    <dc:type rdf:resource="http://purl.org/dc/dcmitype/StillImage"/>
    <dc:date>2026-07-22T11:17:44.326631</dc:date>
    <dc:format>image/svg+xml</dc:format>
    <dc:creator>
     <cc:Agent>
      <dc:title>Matplotlib v3.11.1, https://matplotlib.org/</dc:title>
     </cc:Agent>
    </dc:creator>
   </cc:Work>
  </rdf:RDF>
 </metadata>
 <defs>
  <style type="text/css">*{stroke-linejoin: round; stroke-linecap: butt}</style>
 </defs>
 <g id="figure_1">
  <g id="patch_1">
   <path d="M 0 345.978906 
L 514.756484 345.978906 
L 514.756484 0 
L 0 0 
z
" style="fill: #ffffff"/>
  </g>
  <g id="axes_1">
   <g id="patch_2">
    <path d="M 44.698438 304.277969 
L 491.098437 304.277969 
L 491.098437 27.077969 
L 44.698438 27.077969 
z
" style="fill: #ffffff"/>
   </g>
   <g id="matplotlib.axis_1">
    <g id="xtick_1">
     <g id="line2d_1">
      <path d="M 63.359555 304.277969 
L 63.359555 27.077969 
" clip-path="url(#p5fc358635b)" style="fill: none; stroke-dasharray: 2.22,0.96; stroke-dashoffset: 0; stroke: #b0b0b0; stroke-opacity: 0.25; stroke-width: 0.6"/>
     </g>
     <g id="line2d_2">
      <defs>
       <path id="m1b8306569a" d="M 0 0 
L 0 4 
" style="stroke: #000000; stroke-width: 0.8"/>
      </defs>
      <g>
       <use xlink:href="#m1b8306569a" x="63.359555" y="304.277969" style="stroke: #000000; stroke-width: 0.8"/>
      </g>
     </g>
     <g id="text_1">
      <!-- 0 -->
      <g transform="translate(59.86018 320.135391) scale(0.11 -0.11)">
       <defs>
        <path id="DejaVuSans-13" d="M 2034 4250 
Q 1547 4250 1301 3770 
Q 1056 3291 1056 2328 
Q 1056 1369 1301 889 
Q 1547 409 2034 409 
Q 2525 409 2770 889 
Q 3016 1369 3016 2328 
Q 3016 3291 2770 3770 
Q 2525 4250 2034 4250 
z
M 2034 4750 
Q 2819 4750 3233 4129 
Q 3647 3509 3647 2328 
Q 3647 1150 3233 529 
Q 2819 -91 2034 -91 
Q 1250 -91 836 529 
Q 422 1150 422 2328 
Q 422 3509 836 4129 
Q 1250 4750 2034 4750 
z
" transform="scale(0.015625)"/>
       </defs>
       <use xlink:href="#DejaVuSans-13"/>
      </g>
     </g>
    </g>
    <g id="xtick_2">
     <g id="line2d_3">
      <path d="M 144.849149 304.277969 
L 144.849149 27.077969 
" clip-path="url(#p5fc358635b)" style="fill: none; stroke-dasharray: 2.22,0.96; stroke-dashoffset: 0; stroke: #b0b0b0; stroke-opacity: 0.25; stroke-width: 0.6"/>
     </g>
     <g id="line2d_4">
      <g>
       <use xlink:href="#m1b8306569a" x="144.849149" y="304.277969" style="stroke: #000000; stroke-width: 0.8"/>
      </g>
     </g>
     <g id="text_2">
      <!-- 50 -->
      <g transform="translate(137.850399 320.135391) scale(0.11 -0.11)">
       <defs>
        <path id="DejaVuSans-18" d="M 691 4666 
L 3169 4666 
L 3169 4134 
L 1269 4134 
L 1269 2991 
Q 1406 3038 1543 3061 
Q 1681 3084 1819 3084 
Q 2600 3084 3056 2656 
Q 3513 2228 3513 1497 
Q 3513 744 3044 326 
Q 2575 -91 1722 -91 
Q 1428 -91 1123 -41 
Q 819 9 494 109 
L 494 744 
Q 775 591 1075 516 
Q 1375 441 1709 441 
Q 2250 441 2565 725 
Q 2881 1009 2881 1497 
Q 2881 1984 2565 2268 
Q 2250 2553 1709 2553 
Q 1456 2553 1204 2497 
Q 953 2441 691 2322 
L 691 4666 
z
" transform="scale(0.015625)"/>
       </defs>
       <use xlink:href="#DejaVuSans-18"/>
       <use xlink:href="#DejaVuSans-13" transform="translate(63.625 0)"/>
      </g>
     </g>
    </g>
    <g id="xtick_3">
     <g id="line2d_5">
      <path d="M 226.338744 304.277969 
L 226.338744 27.077969 
" clip-path="url(#p5fc358635b)" style="fill: none; stroke-dasharray: 2.22,0.96; stroke-dashoffset: 0; stroke: #b0b0b0; stroke-opacity: 0.25; stroke-width: 0.6"/>
     </g>
     <g id="line2d_6">
      <g>
       <use xlink:href="#m1b8306569a" x="226.338744" y="304.277969" style="stroke: #000000; stroke-width: 0.8"/>
      </g>
     </g>
     <g id="text_3">
      <!-- 100 -->
      <g transform="translate(215.840619 320.135391) scale(0.11 -0.11)">
       <defs>
        <path id="DejaVuSans-14" d="M 794 531 
L 1825 531 
L 1825 4091 
L 703 3866 
L 703 4441 
L 1819 4666 
L 2450 4666 
L 2450 531 
L 3481 531 
L 3481 0 
L 794 0 
L 794 531 
z
" transform="scale(0.015625)"/>
       </defs>
       <use xlink:href="#DejaVuSans-14"/>
       <use xlink:href="#DejaVuSans-13" transform="translate(63.625 0)"/>
       <use xlink:href="#DejaVuSans-13" transform="translate(127.25 0)"/>
      </g>
     </g>
    </g>
    <g id="xtick_4">
     <g id="line2d_7">
      <path d="M 307.828339 304.277969 
L 307.828339 27.077969 
" clip-path="url(#p5fc358635b)" style="fill: none; stroke-dasharray: 2.22,0.96; stroke-dashoffset: 0; stroke: #b0b0b0; stroke-opacity: 0.25; stroke-width: 0.6"/>
     </g>
     <g id="line2d_8">
      <g>
       <use xlink:href="#m1b8306569a" x="307.828339" y="304.277969" style="stroke: #000000; stroke-width: 0.8"/>
      </g>
     </g>
     <g id="text_4">
      <!-- 150 -->
      <g transform="translate(297.330214 320.135391) scale(0.11 -0.11)">
       <use xlink:href="#DejaVuSans-14"/>
       <use xlink:href="#DejaVuSans-18" transform="translate(63.625 0)"/>
       <use xlink:href="#DejaVuSans-13" transform="translate(127.25 0)"/>
      </g>
     </g>
    </g>
    <g id="xtick_5">
     <g id="line2d_9">
      <path d="M 389.317934 304.277969 
L 389.317934 27.077969 
" clip-path="url(#p5fc358635b)" style="fill: none; stroke-dasharray: 2.22,0.96; stroke-dashoffset: 0; stroke: #b0b0b0; stroke-opacity: 0.25; stroke-width: 0.6"/>
     </g>
     <g id="line2d_10">
      <g>
       <use xlink:href="#m1b8306569a" x="389.317934" y="304.277969" style="stroke: #000000; stroke-width: 0.8"/>
      </g>
     </g>
     <g id="text_5">
      <!-- 200 -->
      <g transform="translate(378.819809 320.135391) scale(0.11 -0.11)">
       <defs>
        <path id="DejaVuSans-15" d="M 1228 531 
L 3431 531 
L 3431 0 
L 469 0 
L 469 531 
Q 828 903 1448 1529 
Q 2069 2156 2228 2338 
Q 2531 2678 2651 2914 
Q 2772 3150 2772 3378 
Q 2772 3750 2511 3984 
Q 2250 4219 1831 4219 
Q 1534 4219 1204 4116 
Q 875 4013 500 3803 
L 500 4441 
Q 881 4594 1212 4672 
Q 1544 4750 1819 4750 
Q 2544 4750 2975 4387 
Q 3406 4025 3406 3419 
Q 3406 3131 3298 2873 
Q 3191 2616 2906 2266 
Q 2828 2175 2409 1742 
Q 1991 1309 1228 531 
z
" transform="scale(0.015625)"/>
       </defs>
       <use xlink:href="#DejaVuSans-15"/>
       <use xlink:href="#DejaVuSans-13" transform="translate(63.625 0)"/>
       <use xlink:href="#DejaVuSans-13" transform="translate(127.25 0)"/>
      </g>
     </g>
    </g>
    <g id="xtick_6">
     <g id="line2d_11">
      <path d="M 470.807528 304.277969 
L 470.807528 27.077969 
" clip-path="url(#p5fc358635b)" style="fill: none; stroke-dasharray: 2.22,0.96; stroke-dashoffset: 0; stroke: #b0b0b0; stroke-opacity: 0.25; stroke-width: 0.6"/>
     </g>
     <g id="line2d_12">
      <g>
       <use xlink:href="#m1b8306569a" x="470.807528" y="304.277969" style="stroke: #000000; stroke-width: 0.8"/>
      </g>
     </g>
     <g id="text_6">
      <!-- 250 -->
      <g transform="translate(460.309403 320.135391) scale(0.11 -0.11)">
       <use xlink:href="#DejaVuSans-15"/>
       <use xlink:href="#DejaVuSans-18" transform="translate(63.625 0)"/>
       <use xlink:href="#DejaVuSans-13" transform="translate(127.25 0)"/>
      </g>
     </g>
    </g>
    <g id="text_7">
     <!-- Concurrent Query Demand (relative) -->
     <g transform="translate(157.87625 335.896094) scale(0.12 -0.12)">
      <defs>
       <path id="DejaVuSans-26" d="M 4122 4306 
L 4122 3641 
Q 3803 3938 3442 4084 
Q 3081 4231 2675 4231 
Q 1875 4231 1450 3742 
Q 1025 3253 1025 2328 
Q 1025 1406 1450 917 
Q 1875 428 2675 428 
Q 3081 428 3442 575 
Q 3803 722 4122 1019 
L 4122 359 
Q 3791 134 3420 21 
Q 3050 -91 2638 -91 
Q 1578 -91 968 557 
Q 359 1206 359 2328 
Q 359 3453 968 4101 
Q 1578 4750 2638 4750 
Q 3056 4750 3426 4639 
Q 3797 4528 4122 4306 
z
" transform="scale(0.015625)"/>
       <path id="DejaVuSans-52" d="M 1959 3097 
Q 1497 3097 1228 2736 
Q 959 2375 959 1747 
Q 959 1119 1226 758 
Q 1494 397 1959 397 
Q 2419 397 2687 759 
Q 2956 1122 2956 1747 
Q 2956 2369 2687 2733 
Q 2419 3097 1959 3097 
z
M 1959 3584 
Q 2709 3584 3137 3096 
Q 3566 2609 3566 1747 
Q 3566 888 3137 398 
Q 2709 -91 1959 -91 
Q 1206 -91 779 398 
Q 353 888 353 1747 
Q 353 2609 779 3096 
Q 1206 3584 1959 3584 
z
" transform="scale(0.015625)"/>
       <path id="DejaVuSans-51" d="M 3513 2113 
L 3513 0 
L 2938 0 
L 2938 2094 
Q 2938 2591 2744 2837 
Q 2550 3084 2163 3084 
Q 1697 3084 1428 2787 
Q 1159 2491 1159 1978 
L 1159 0 
L 581 0 
L 581 3500 
L 1159 3500 
L 1159 2956 
Q 1366 3272 1645 3428 
Q 1925 3584 2291 3584 
Q 2894 3584 3203 3211 
Q 3513 2838 3513 2113 
z
" transform="scale(0.015625)"/>
       <path id="DejaVuSans-46" d="M 3122 3366 
L 3122 2828 
Q 2878 2963 2633 3030 
Q 2388 3097 2138 3097 
Q 1578 3097 1268 2742 
Q 959 2388 959 1747 
Q 959 1106 1268 751 
Q 1578 397 2138 397 
Q 2388 397 2633 464 
Q 2878 531 3122 666 
L 3122 134 
Q 2881 22 2623 -34 
Q 2366 -91 2075 -91 
Q 1284 -91 818 406 
Q 353 903 353 1747 
Q 353 2603 823 3093 
Q 1294 3584 2113 3584 
Q 2378 3584 2631 3529 
Q 2884 3475 3122 3366 
z
" transform="scale(0.015625)"/>
       <path id="DejaVuSans-58" d="M 544 1381 
L 544 3500 
L 1119 3500 
L 1119 1403 
Q 1119 906 1312 657 
Q 1506 409 1894 409 
Q 2359 409 2629 706 
Q 2900 1003 2900 1516 
L 2900 3500 
L 3475 3500 
L 3475 0 
L 2900 0 
L 2900 538 
Q 2691 219 2414 64 
Q 2138 -91 1772 -91 
Q 1169 -91 856 284 
Q 544 659 544 1381 
z
M 1991 3584 
L 1991 3584 
z
" transform="scale(0.015625)"/>
       <path id="DejaVuSans-55" d="M 2631 2963 
Q 2534 3019 2420 3045 
Q 2306 3072 2169 3072 
Q 1681 3072 1420 2755 
Q 1159 2438 1159 1844 
L 1159 0 
L 581 0 
L 581 3500 
L 1159 3500 
L 1159 2956 
Q 1341 3275 1631 3429 
Q 1922 3584 2338 3584 
Q 2397 3584 2469 3576 
Q 2541 3569 2628 3553 
L 2631 2963 
z
" transform="scale(0.015625)"/>
       <path id="DejaVuSans-48" d="M 3597 1894 
L 3597 1613 
L 953 1613 
Q 991 1019 1311 708 
Q 1631 397 2203 397 
Q 2534 397 2845 478 
Q 3156 559 3463 722 
L 3463 178 
Q 3153 47 2828 -22 
Q 2503 -91 2169 -91 
Q 1331 -91 842 396 
Q 353 884 353 1716 
Q 353 2575 817 3079 
Q 1281 3584 2069 3584 
Q 2775 3584 3186 3129 
Q 3597 2675 3597 1894 
z
M 3022 2063 
Q 3016 2534 2758 2815 
Q 2500 3097 2075 3097 
Q 1594 3097 1305 2825 
Q 1016 2553 972 2059 
L 3022 2063 
z
" transform="scale(0.015625)"/>
       <path id="DejaVuSans-57" d="M 1172 4494 
L 1172 3500 
L 2356 3500 
L 2356 3053 
L 1172 3053 
L 1172 1153 
Q 1172 725 1289 603 
Q 1406 481 1766 481 
L 2356 481 
L 2356 0 
L 1766 0 
Q 1100 0 847 248 
Q 594 497 594 1153 
L 594 3053 
L 172 3053 
L 172 3500 
L 594 3500 
L 594 4494 
L 1172 4494 
z
" transform="scale(0.015625)"/>
       <path id="DejaVuSans-3" transform="scale(0.015625)"/>
       <path id="DejaVuSans-34" d="M 2522 4238 
Q 1834 4238 1429 3725 
Q 1025 3213 1025 2328 
Q 1025 1447 1429 934 
Q 1834 422 2522 422 
Q 3209 422 3611 934 
Q 4013 1447 4013 2328 
Q 4013 3213 3611 3725 
Q 3209 4238 2522 4238 
z
M 3406 84 
L 4238 -825 
L 3475 -825 
L 2784 -78 
Q 2681 -84 2626 -87 
Q 2572 -91 2522 -91 
Q 1538 -91 948 567 
Q 359 1225 359 2328 
Q 359 3434 948 4092 
Q 1538 4750 2522 4750 
Q 3503 4750 4090 4092 
Q 4678 3434 4678 2328 
Q 4678 1516 4351 937 
Q 4025 359 3406 84 
z
" transform="scale(0.015625)"/>
       <path id="DejaVuSans-5c" d="M 2059 -325 
Q 1816 -950 1584 -1140 
Q 1353 -1331 966 -1331 
L 506 -1331 
L 506 -850 
L 844 -850 
Q 1081 -850 1212 -737 
Q 1344 -625 1503 -206 
L 1606 56 
L 191 3500 
L 800 3500 
L 1894 763 
L 2988 3500 
L 3597 3500 
L 2059 -325 
z
" transform="scale(0.015625)"/>
       <path id="DejaVuSans-27" d="M 1259 4147 
L 1259 519 
L 2022 519 
Q 2988 519 3436 956 
Q 3884 1394 3884 2338 
Q 3884 3275 3436 3711 
Q 2988 4147 2022 4147 
L 1259 4147 
z
M 628 4666 
L 1925 4666 
Q 3281 4666 3915 4102 
Q 4550 3538 4550 2338 
Q 4550 1131 3912 565 
Q 3275 0 1925 0 
L 628 0 
L 628 4666 
z
" transform="scale(0.015625)"/>
       <path id="DejaVuSans-50" d="M 3328 2828 
Q 3544 3216 3844 3400 
Q 4144 3584 4550 3584 
Q 5097 3584 5394 3201 
Q 5691 2819 5691 2113 
L 5691 0 
L 5113 0 
L 5113 2094 
Q 5113 2597 4934 2840 
Q 4756 3084 4391 3084 
Q 3944 3084 3684 2787 
Q 3425 2491 3425 1978 
L 3425 0 
L 2847 0 
L 2847 2094 
Q 2847 2600 2669 2842 
Q 2491 3084 2119 3084 
Q 1678 3084 1418 2786 
Q 1159 2488 1159 1978 
L 1159 0 
L 581 0 
L 581 3500 
L 1159 3500 
L 1159 2956 
Q 1356 3278 1631 3431 
Q 1906 3584 2284 3584 
Q 2666 3584 2933 3390 
Q 3200 3197 3328 2828 
z
" transform="scale(0.015625)"/>
       <path id="DejaVuSans-44" d="M 2194 1759 
Q 1497 1759 1228 1600 
Q 959 1441 959 1056 
Q 959 750 1161 570 
Q 1363 391 1709 391 
Q 2188 391 2477 730 
Q 2766 1069 2766 1631 
L 2766 1759 
L 2194 1759 
z
M 3341 1997 
L 3341 0 
L 2766 0 
L 2766 531 
Q 2569 213 2275 61 
Q 1981 -91 1556 -91 
Q 1019 -91 701 211 
Q 384 513 384 1019 
Q 384 1609 779 1909 
Q 1175 2209 1959 2209 
L 2766 2209 
L 2766 2266 
Q 2766 2663 2505 2880 
Q 2244 3097 1772 3097 
Q 1472 3097 1187 3025 
Q 903 2953 641 2809 
L 641 3341 
Q 956 3463 1253 3523 
Q 1550 3584 1831 3584 
Q 2591 3584 2966 3190 
Q 3341 2797 3341 1997 
z
" transform="scale(0.015625)"/>
       <path id="DejaVuSans-47" d="M 2906 2969 
L 2906 4863 
L 3481 4863 
L 3481 0 
L 2906 0 
L 2906 525 
Q 2725 213 2448 61 
Q 2172 -91 1784 -91 
Q 1150 -91 751 415 
Q 353 922 353 1747 
Q 353 2572 751 3078 
Q 1150 3584 1784 3584 
Q 2172 3584 2448 3432 
Q 2725 3281 2906 2969 
z
M 947 1747 
Q 947 1113 1208 752 
Q 1469 391 1925 391 
Q 2381 391 2643 752 
Q 2906 1113 2906 1747 
Q 2906 2381 2643 2742 
Q 2381 3103 1925 3103 
Q 1469 3103 1208 2742 
Q 947 2381 947 1747 
z
" transform="scale(0.015625)"/>
       <path id="DejaVuSans-b" d="M 1984 4856 
Q 1566 4138 1362 3434 
Q 1159 2731 1159 2009 
Q 1159 1288 1364 580 
Q 1569 -128 1984 -844 
L 1484 -844 
Q 1016 -109 783 600 
Q 550 1309 550 2009 
Q 550 2706 781 3412 
Q 1013 4119 1484 4856 
L 1984 4856 
z
" transform="scale(0.015625)"/>
       <path id="DejaVuSans-4f" d="M 603 4863 
L 1178 4863 
L 1178 0 
L 603 0 
L 603 4863 
z
" transform="scale(0.015625)"/>
       <path id="DejaVuSans-4c" d="M 603 3500 
L 1178 3500 
L 1178 0 
L 603 0 
L 603 3500 
z
M 603 4863 
L 1178 4863 
L 1178 4134 
L 603 4134 
L 603 4863 
z
" transform="scale(0.015625)"/>
       <path id="DejaVuSans-59" d="M 191 3500 
L 800 3500 
L 1894 563 
L 2988 3500 
L 3597 3500 
L 2284 0 
L 1503 0 
L 191 3500 
z
" transform="scale(0.015625)"/>
       <path id="DejaVuSans-c" d="M 513 4856 
L 1013 4856 
Q 1481 4119 1714 3412 
Q 1947 2706 1947 2009 
Q 1947 1309 1714 600 
Q 1481 -109 1013 -844 
L 513 -844 
Q 928 -128 1133 580 
Q 1338 1288 1338 2009 
Q 1338 2731 1133 3434 
Q 928 4138 513 4856 
z
" transform="scale(0.015625)"/>
      </defs>
      <use xlink:href="#DejaVuSans-26"/>
      <use xlink:href="#DejaVuSans-52" transform="translate(69.828125 0)"/>
      <use xlink:href="#DejaVuSans-51" transform="translate(131.015625 0)"/>
      <use xlink:href="#DejaVuSans-46" transform="translate(194.390625 0)"/>
      <use xlink:href="#DejaVuSans-58" transform="translate(249.375 0)"/>
      <use xlink:href="#DejaVuSans-55" transform="translate(312.75 0)"/>
      <use xlink:href="#DejaVuSans-55" transform="translate(352.109375 0)"/>
      <use xlink:href="#DejaVuSans-48" transform="translate(391.015625 0)"/>
      <use xlink:href="#DejaVuSans-51" transform="translate(452.546875 0)"/>
      <use xlink:href="#DejaVuSans-57" transform="translate(515.921875 0)"/>
      <use xlink:href="#DejaVuSans-3" transform="translate(555.125 0)"/>
      <use xlink:href="#DejaVuSans-34" transform="translate(586.90625 0)"/>
      <use xlink:href="#DejaVuSans-58" transform="translate(665.625 0)"/>
      <use xlink:href="#DejaVuSans-48" transform="translate(729 0)"/>
      <use xlink:href="#DejaVuSans-55" transform="translate(790.53125 0)"/>
      <use xlink:href="#DejaVuSans-5c" transform="translate(831.640625 0)"/>
      <use xlink:href="#DejaVuSans-3" transform="translate(890.828125 0)"/>
      <use xlink:href="#DejaVuSans-27" transform="translate(922.609375 0)"/>
      <use xlink:href="#DejaVuSans-48" transform="translate(999.609375 0)"/>
      <use xlink:href="#DejaVuSans-50" transform="translate(1061.140625 0)"/>
      <use xlink:href="#DejaVuSans-44" transform="translate(1158.546875 0)"/>
      <use xlink:href="#DejaVuSans-51" transform="translate(1219.828125 0)"/>
      <use xlink:href="#DejaVuSans-47" transform="translate(1283.203125 0)"/>
      <use xlink:href="#DejaVuSans-3" transform="translate(1346.6875 0)"/>
      <use xlink:href="#DejaVuSans-b" transform="translate(1378.46875 0)"/>
      <use xlink:href="#DejaVuSans-55" transform="translate(1417.484375 0)"/>
      <use xlink:href="#DejaVuSans-48" transform="translate(1456.390625 0)"/>
      <use xlink:href="#DejaVuSans-4f" transform="translate(1517.921875 0)"/>
      <use xlink:href="#DejaVuSans-44" transform="translate(1545.703125 0)"/>
      <use xlink:href="#DejaVuSans-57" transform="translate(1606.984375 0)"/>
      <use xlink:href="#DejaVuSans-4c" transform="translate(1646.1875 0)"/>
      <use xlink:href="#DejaVuSans-59" transform="translate(1673.96875 0)"/>
      <use xlink:href="#DejaVuSans-48" transform="translate(1733.15625 0)"/>
      <use xlink:href="#DejaVuSans-c" transform="translate(1794.6875 0)"/>
     </g>
    </g>
   </g>
   <g id="matplotlib.axis_2">
    <g id="ytick_1">
     <g id="line2d_13">
      <path d="M 44.698438 304.277969 
L 491.098437 304.277969 
" clip-path="url(#p5fc358635b)" style="fill: none; stroke-dasharray: 2.22,0.96; stroke-dashoffset: 0; stroke: #b0b0b0; stroke-opacity: 0.25; stroke-width: 0.6"/>
     </g>
     <g id="line2d_14">
      <defs>
       <path id="medb29d5dd4" d="M 0 0 
L -4 0 
" style="stroke: #000000; stroke-width: 0.8"/>
      </defs>
      <g>
       <use xlink:href="#medb29d5dd4" x="44.698438" y="304.277969" style="stroke: #000000; stroke-width: 0.8"/>
      </g>
     </g>
     <g id="text_8">
      <!-- 0 -->
      <g transform="translate(30.199688 308.45668) scale(0.11 -0.11)">
       <use xlink:href="#DejaVuSans-13"/>
      </g>
     </g>
    </g>
    <g id="ytick_2">
     <g id="line2d_15">
      <path d="M 44.698438 248.837969 
L 491.098437 248.837969 
" clip-path="url(#p5fc358635b)" style="fill: none; stroke-dasharray: 2.22,0.96; stroke-dashoffset: 0; stroke: #b0b0b0; stroke-opacity: 0.25; stroke-width: 0.6"/>
     </g>
     <g id="line2d_16">
      <g>
       <use xlink:href="#medb29d5dd4" x="44.698438" y="248.837969" style="stroke: #000000; stroke-width: 0.8"/>
      </g>
     </g>
     <g id="text_9">
      <!-- 5 -->
      <g transform="translate(30.199688 253.01668) scale(0.11 -0.11)">
       <use xlink:href="#DejaVuSans-18"/>
      </g>
     </g>
    </g>
    <g id="ytick_3">
     <g id="line2d_17">
      <path d="M 44.698438 193.397969 
L 491.098437 193.397969 
" clip-path="url(#p5fc358635b)" style="fill: none; stroke-dasharray: 2.22,0.96; stroke-dashoffset: 0; stroke: #b0b0b0; stroke-opacity: 0.25; stroke-width: 0.6"/>
     </g>
     <g id="line2d_18">
      <g>
       <use xlink:href="#medb29d5dd4" x="44.698438" y="193.397969" style="stroke: #000000; stroke-width: 0.8"/>
      </g>
     </g>
     <g id="text_10">
      <!-- 10 -->
      <g transform="translate(23.200938 197.57668) scale(0.11 -0.11)">
       <use xlink:href="#DejaVuSans-14"/>
       <use xlink:href="#DejaVuSans-13" transform="translate(63.625 0)"/>
      </g>
     </g>
    </g>
    <g id="ytick_4">
     <g id="line2d_19">
      <path d="M 44.698438 137.957969 
L 491.098437 137.957969 
" clip-path="url(#p5fc358635b)" style="fill: none; stroke-dasharray: 2.22,0.96; stroke-dashoffset: 0; stroke: #b0b0b0; stroke-opacity: 0.25; stroke-width: 0.6"/>
     </g>
     <g id="line2d_20">
      <g>
       <use xlink:href="#medb29d5dd4" x="44.698438" y="137.957969" style="stroke: #000000; stroke-width: 0.8"/>
      </g>
     </g>
     <g id="text_11">
      <!-- 15 -->
      <g transform="translate(23.200938 142.13668) scale(0.11 -0.11)">
       <use xlink:href="#DejaVuSans-14"/>
       <use xlink:href="#DejaVuSans-18" transform="translate(63.625 0)"/>
      </g>
     </g>
    </g>
    <g id="ytick_5">
     <g id="line2d_21">
      <path d="M 44.698438 82.517969 
L 491.098437 82.517969 
" clip-path="url(#p5fc358635b)" style="fill: none; stroke-dasharray: 2.22,0.96; stroke-dashoffset: 0; stroke: #b0b0b0; stroke-opacity: 0.25; stroke-width: 0.6"/>
     </g>
     <g id="line2d_22">
      <g>
       <use xlink:href="#medb29d5dd4" x="44.698438" y="82.517969" style="stroke: #000000; stroke-width: 0.8"/>
      </g>
     </g>
     <g id="text_12">
      <!-- 20 -->
      <g transform="translate(23.200938 86.69668) scale(0.11 -0.11)">
       <use xlink:href="#DejaVuSans-15"/>
       <use xlink:href="#DejaVuSans-13" transform="translate(63.625 0)"/>
      </g>
     </g>
    </g>
    <g id="ytick_6">
     <g id="line2d_23">
      <path d="M 44.698438 27.077969 
L 491.098437 27.077969 
" clip-path="url(#p5fc358635b)" style="fill: none; stroke-dasharray: 2.22,0.96; stroke-dashoffset: 0; stroke: #b0b0b0; stroke-opacity: 0.25; stroke-width: 0.6"/>
     </g>
     <g id="line2d_24">
      <g>
       <use xlink:href="#medb29d5dd4" x="44.698438" y="27.077969" style="stroke: #000000; stroke-width: 0.8"/>
      </g>
     </g>
     <g id="text_13">
      <!-- 25 -->
      <g transform="translate(23.200938 31.25668) scale(0.11 -0.11)">
       <use xlink:href="#DejaVuSans-15"/>
       <use xlink:href="#DejaVuSans-18" transform="translate(63.625 0)"/>
      </g>
     </g>
    </g>
    <g id="text_14">
     <!-- Wait Time (relative units) -->
     <g transform="translate(16.318125 241.390469) rotate(-90) scale(0.12 -0.12)">
      <defs>
       <path id="DejaVuSans-3a" d="M 213 4666 
L 850 4666 
L 1831 722 
L 2809 4666 
L 3519 4666 
L 4500 722 
L 5478 4666 
L 6119 4666 
L 4947 0 
L 4153 0 
L 3169 4050 
L 2175 0 
L 1381 0 
L 213 4666 
z
" transform="scale(0.015625)"/>
       <path id="DejaVuSans-37" d="M -19 4666 
L 3928 4666 
L 3928 4134 
L 2272 4134 
L 2272 0 
L 1638 0 
L 1638 4134 
L -19 4134 
L -19 4666 
z
" transform="scale(0.015625)"/>
       <path id="DejaVuSans-56" d="M 2834 3397 
L 2834 2853 
Q 2591 2978 2328 3040 
Q 2066 3103 1784 3103 
Q 1356 3103 1142 2972 
Q 928 2841 928 2578 
Q 928 2378 1081 2264 
Q 1234 2150 1697 2047 
L 1894 2003 
Q 2506 1872 2764 1633 
Q 3022 1394 3022 966 
Q 3022 478 2636 193 
Q 2250 -91 1575 -91 
Q 1294 -91 989 -36 
Q 684 19 347 128 
L 347 722 
Q 666 556 975 473 
Q 1284 391 1588 391 
Q 1994 391 2212 530 
Q 2431 669 2431 922 
Q 2431 1156 2273 1281 
Q 2116 1406 1581 1522 
L 1381 1569 
Q 847 1681 609 1914 
Q 372 2147 372 2553 
Q 372 3047 722 3315 
Q 1072 3584 1716 3584 
Q 2034 3584 2315 3537 
Q 2597 3491 2834 3397 
z
" transform="scale(0.015625)"/>
      </defs>
      <use xlink:href="#DejaVuSans-3a"/>
      <use xlink:href="#DejaVuSans-44" transform="translate(92.484375 0)"/>
      <use xlink:href="#DejaVuSans-4c" transform="translate(153.765625 0)"/>
      <use xlink:href="#DejaVuSans-57" transform="translate(181.546875 0)"/>
      <use xlink:href="#DejaVuSans-3" transform="translate(220.75 0)"/>
      <use xlink:href="#DejaVuSans-37" transform="translate(252.53125 0)"/>
      <use xlink:href="#DejaVuSans-4c" transform="translate(310.53125 0)"/>
      <use xlink:href="#DejaVuSans-50" transform="translate(338.3125 0)"/>
      <use xlink:href="#DejaVuSans-48" transform="translate(435.71875 0)"/>
      <use xlink:href="#DejaVuSans-3" transform="translate(497.25 0)"/>
      <use xlink:href="#DejaVuSans-b" transform="translate(529.03125 0)"/>
      <use xlink:href="#DejaVuSans-55" transform="translate(568.046875 0)"/>
      <use xlink:href="#DejaVuSans-48" transform="translate(606.953125 0)"/>
      <use xlink:href="#DejaVuSans-4f" transform="translate(668.484375 0)"/>
      <use xlink:href="#DejaVuSans-44" transform="translate(696.265625 0)"/>
      <use xlink:href="#DejaVuSans-57" transform="translate(757.546875 0)"/>
      <use xlink:href="#DejaVuSans-4c" transform="translate(796.75 0)"/>
      <use xlink:href="#DejaVuSans-59" transform="translate(824.53125 0)"/>
      <use xlink:href="#DejaVuSans-48" transform="translate(883.71875 0)"/>
      <use xlink:href="#DejaVuSans-3" transform="translate(945.25 0)"/>
      <use xlink:href="#DejaVuSans-58" transform="translate(977.03125 0)"/>
      <use xlink:href="#DejaVuSans-51" transform="translate(1040.40625 0)"/>
      <use xlink:href="#DejaVuSans-4c" transform="translate(1103.78125 0)"/>
      <use xlink:href="#DejaVuSans-57" transform="translate(1131.5625 0)"/>
      <use xlink:href="#DejaVuSans-56" transform="translate(1170.765625 0)"/>
      <use xlink:href="#DejaVuSans-c" transform="translate(1222.859375 0)"/>
     </g>
    </g>
   </g>
   <g id="line2d_25">
    <path d="M 64.989347 304.165969 
L 80.245669 302.996366 
L 93.467815 301.765452 
L 104.655785 300.514972 
L 114.826667 299.16043 
L 123.980461 297.711186 
L 132.117166 296.18657 
L 139.236783 294.618867 
L 145.339312 293.055772 
L 150.424753 291.561223 
L 155.510194 289.852059 
L 160.595635 287.878476 
L 164.663988 286.065273 
L 168.73234 283.995962 
L 171.783605 282.24144 
L 174.834869 280.279031 
L 177.886134 278.069459 
L 180.937399 275.562892 
L 183.988663 272.695135 
L 186.022839 270.542139 
L 188.057016 268.160335 
L 190.091192 265.511202 
L 192.125368 262.547058 
L 194.159545 259.208162 
L 196.193721 255.418652 
L 198.227898 251.080703 
L 200.262074 246.065969 
L 202.29625 240.202666 
L 204.330427 233.255501 
L 206.364603 224.893331 
L 207.381691 220.039272 
L 208.398779 214.634821 
L 209.415867 208.580741 
L 210.432956 201.752409 
L 211.450044 193.991154 
L 212.467132 185.091764 
L 213.48422 174.784081 
L 214.501308 162.705099 
L 215.518396 148.355323 
L 216.535485 131.027969 
L 217.552573 109.688981 
L 218.569661 82.762814 
L 219.586749 47.724589 
L 220.622676 -1 
L 220.622676 -1 
" clip-path="url(#p5fc358635b)" style="fill: none; stroke: #d55e00; stroke-width: 2.2; stroke-linecap: round"/>
   </g>
   <g id="line2d_26">
    <path d="M 64.989347 304.165969 
L 80.245669 302.996366 
L 93.467815 301.765452 
L 104.655785 300.514972 
L 114.826667 299.16043 
L 123.980461 297.711186 
L 132.117166 296.18657 
L 139.236783 294.618867 
L 145.339312 293.055772 
L 150.424753 291.561223 
L 155.510194 289.852059 
L 160.595635 287.878476 
L 164.663988 286.065273 
L 168.73234 283.995962 
L 171.783605 282.24144 
L 174.834869 280.279031 
L 177.886134 278.069459 
L 180.937399 275.562892 
L 183.988663 272.695135 
L 186.022839 270.542139 
L 188.057016 268.160335 
L 190.091192 265.511202 
L 192.125368 262.547058 
L 194.159545 259.208162 
L 196.193721 255.418652 
L 198.227898 251.080703 
L 200.262074 246.065969 
L 202.29625 240.202666 
L 204.330427 233.255501 
L 206.364603 224.893331 
L 207.381691 220.039272 
L 208.398779 214.634821 
L 209.415867 208.580741 
L 210.432956 201.752409 
L 211.450044 193.991154 
L 212.467132 185.091764 
L 213.48422 174.784081 
L 214.501308 162.705099 
L 215.518396 148.355323 
L 216.535485 131.027969 
L 217.552573 109.688981 
L 218.569661 82.762814 
L 219.586749 47.724589 
L 220.622676 -1 
L 220.622676 -1 
" clip-path="url(#p5fc358635b)" style="fill: none; stroke: #e69f00; stroke-width: 2.2; stroke-linecap: round"/>
   </g>
   <g id="line2d_27">
    <path d="M 64.989347 304.165969 
L 80.245669 302.996366 
L 93.467815 301.765452 
L 104.655785 300.514972 
L 114.826667 299.16043 
L 123.980461 297.711186 
L 132.117166 296.18657 
L 139.236783 294.618867 
L 145.339312 293.055772 
L 150.424753 291.561223 
L 155.510194 289.852059 
L 160.595635 287.878476 
L 164.663988 286.065273 
L 168.73234 283.995962 
L 171.783605 282.24144 
L 174.834869 280.279031 
L 177.886134 278.069459 
L 180.937399 275.562892 
L 183.988663 272.695135 
L 186.022839 270.542139 
L 188.057016 268.160335 
L 190.091192 265.511202 
L 192.125368 262.547058 
L 194.159545 259.208162 
L 196.193721 255.418652 
L 198.227898 251.080703 
L 200.262074 246.065969 
L 202.29625 240.202666 
L 204.330427 233.255501 
L 206.364603 224.893331 
L 207.381691 220.039272 
L 208.398779 214.634821 
L 209.415867 208.580741 
L 210.432956 201.752409 
L 211.450044 193.991154 
L 212.467132 185.091764 
L 213.48422 174.784081 
L 214.501308 162.705099 
L 215.518396 148.355323 
L 216.535485 131.027969 
L 217.552573 109.688981 
L 218.569661 82.762814 
L 219.586749 47.724589 
L 220.622676 -1 
L 220.622676 -1 
" clip-path="url(#p5fc358635b)" style="fill: none; stroke: #0072b2; stroke-width: 2.2; stroke-linecap: round"/>
   </g>
   <g id="line2d_28">
    <path d="M 226.338744 304.277969 
L 226.338744 27.077969 
" clip-path="url(#p5fc358635b)" style="fill: none; stroke-dasharray: 1,1.65; stroke-dashoffset: 0; stroke: #808080; stroke-opacity: 0.6"/>
   </g>
   <g id="patch_3">
    <path d="M 44.698438 304.277969 
L 44.698438 27.077969 
" style="fill: none; stroke: #000000; stroke-width: 0.8; stroke-linejoin: miter; stroke-linecap: square"/>
   </g>
   <g id="patch_4">
    <path d="M 44.698438 304.277969 
L 491.098438 304.277969 
" style="fill: none; stroke: #000000; stroke-width: 0.8; stroke-linejoin: miter; stroke-linecap: square"/>
   </g>
   <g id="text_15">
    <!-- Nominal capacity -->
    <g style="fill: #808080" transform="translate(239.377079 293.189969) scale(0.09 -0.09)">
     <defs>
      <path id="DejaVuSans-31" d="M 628 4666 
L 1478 4666 
L 3547 763 
L 3547 4666 
L 4159 4666 
L 4159 0 
L 3309 0 
L 1241 3903 
L 1241 0 
L 628 0 
L 628 4666 
z
" transform="scale(0.015625)"/>
      <path id="DejaVuSans-53" d="M 1159 525 
L 1159 -1331 
L 581 -1331 
L 581 3500 
L 1159 3500 
L 1159 2969 
Q 1341 3281 1617 3432 
Q 1894 3584 2278 3584 
Q 2916 3584 3314 3078 
Q 3713 2572 3713 1747 
Q 3713 922 3314 415 
Q 2916 -91 2278 -91 
Q 1894 -91 1617 61 
Q 1341 213 1159 525 
z
M 3116 1747 
Q 3116 2381 2855 2742 
Q 2594 3103 2138 3103 
Q 1681 3103 1420 2742 
Q 1159 2381 1159 1747 
Q 1159 1113 1420 752 
Q 1681 391 2138 391 
Q 2594 391 2855 752 
Q 3116 1113 3116 1747 
z
" transform="scale(0.015625)"/>
     </defs>
     <use xlink:href="#DejaVuSans-31"/>
     <use xlink:href="#DejaVuSans-52" transform="translate(74.8125 0)"/>
     <use xlink:href="#DejaVuSans-50" transform="translate(136 0)"/>
     <use xlink:href="#DejaVuSans-4c" transform="translate(233.40625 0)"/>
     <use xlink:href="#DejaVuSans-51" transform="translate(261.1875 0)"/>
     <use xlink:href="#DejaVuSans-44" transform="translate(324.5625 0)"/>
     <use xlink:href="#DejaVuSans-4f" transform="translate(385.84375 0)"/>
     <use xlink:href="#DejaVuSans-3" transform="translate(413.625 0)"/>
     <use xlink:href="#DejaVuSans-46" transform="translate(445.40625 0)"/>
     <use xlink:href="#DejaVuSans-44" transform="translate(500.390625 0)"/>
     <use xlink:href="#DejaVuSans-53" transform="translate(561.671875 0)"/>
     <use xlink:href="#DejaVuSans-44" transform="translate(625.15625 0)"/>
     <use xlink:href="#DejaVuSans-46" transform="translate(686.4375 0)"/>
     <use xlink:href="#DejaVuSans-4c" transform="translate(741.421875 0)"/>
     <use xlink:href="#DejaVuSans-57" transform="translate(769.203125 0)"/>
     <use xlink:href="#DejaVuSans-5c" transform="translate(808.40625 0)"/>
    </g>
   </g>
   <g id="text_16">
    <!-- Admission Control Threshold: Bounded Queuing vs. Cluster-Wide Collapse -->
    <g transform="translate(28.240391 17.077969) scale(0.13 -0.13)">
     <defs>
      <path id="DejaVuSans-24" d="M 2188 4044 
L 1331 1722 
L 3047 1722 
L 2188 4044 
z
M 1831 4666 
L 2547 4666 
L 4325 0 
L 3669 0 
L 3244 1197 
L 1141 1197 
L 716 0 
L 50 0 
L 1831 4666 
z
" transform="scale(0.015625)"/>
      <path id="DejaVuSans-4b" d="M 3513 2113 
L 3513 0 
L 2938 0 
L 2938 2094 
Q 2938 2591 2744 2837 
Q 2550 3084 2163 3084 
Q 1697 3084 1428 2787 
Q 1159 2491 1159 1978 
L 1159 0 
L 581 0 
L 581 4863 
L 1159 4863 
L 1159 2956 
Q 1366 3272 1645 3428 
Q 1925 3584 2291 3584 
Q 2894 3584 3203 3211 
Q 3513 2838 3513 2113 
z
" transform="scale(0.015625)"/>
      <path id="DejaVuSans-1d" d="M 750 794 
L 1409 794 
L 1409 0 
L 750 0 
L 750 794 
z
M 750 3309 
L 1409 3309 
L 1409 2516 
L 750 2516 
L 750 3309 
z
" transform="scale(0.015625)"/>
      <path id="DejaVuSans-25" d="M 1259 2228 
L 1259 519 
L 2272 519 
Q 2781 519 3026 730 
Q 3272 941 3272 1375 
Q 3272 1813 3026 2020 
Q 2781 2228 2272 2228 
L 1259 2228 
z
M 1259 4147 
L 1259 2741 
L 2194 2741 
Q 2656 2741 2882 2914 
Q 3109 3088 3109 3444 
Q 3109 3797 2882 3972 
Q 2656 4147 2194 4147 
L 1259 4147 
z
M 628 4666 
L 2241 4666 
Q 2963 4666 3353 4366 
Q 3744 4066 3744 3513 
Q 3744 3084 3544 2831 
Q 3344 2578 2956 2516 
Q 3422 2416 3680 2098 
Q 3938 1781 3938 1306 
Q 3938 681 3513 340 
Q 3088 0 2303 0 
L 628 0 
L 628 4666 
z
" transform="scale(0.015625)"/>
      <path id="DejaVuSans-4a" d="M 2906 1791 
Q 2906 2416 2648 2759 
Q 2391 3103 1925 3103 
Q 1463 3103 1205 2759 
Q 947 2416 947 1791 
Q 947 1169 1205 825 
Q 1463 481 1925 481 
Q 2391 481 2648 825 
Q 2906 1169 2906 1791 
z
M 3481 434 
Q 3481 -459 3084 -895 
Q 2688 -1331 1869 -1331 
Q 1566 -1331 1297 -1286 
Q 1028 -1241 775 -1147 
L 775 -588 
Q 1028 -725 1275 -790 
Q 1522 -856 1778 -856 
Q 2344 -856 2625 -561 
Q 2906 -266 2906 331 
L 2906 616 
Q 2728 306 2450 153 
Q 2172 0 1784 0 
Q 1141 0 747 490 
Q 353 981 353 1791 
Q 353 2603 747 3093 
Q 1141 3584 1784 3584 
Q 2172 3584 2450 3431 
Q 2728 3278 2906 2969 
L 2906 3500 
L 3481 3500 
L 3481 434 
z
" transform="scale(0.015625)"/>
      <path id="DejaVuSans-11" d="M 684 794 
L 1344 794 
L 1344 0 
L 684 0 
L 684 794 
z
" transform="scale(0.015625)"/>
      <path id="DejaVuSans-10" d="M 313 2009 
L 1997 2009 
L 1997 1497 
L 313 1497 
L 313 2009 
z
" transform="scale(0.015625)"/>
     </defs>
     <use xlink:href="#DejaVuSans-24"/>
     <use xlink:href="#DejaVuSans-47" transform="translate(66.65625 0)"/>
     <use xlink:href="#DejaVuSans-50" transform="translate(130.140625 0)"/>
     <use xlink:href="#DejaVuSans-4c" transform="translate(227.546875 0)"/>
     <use xlink:href="#DejaVuSans-56" transform="translate(255.328125 0)"/>
     <use xlink:href="#DejaVuSans-56" transform="translate(307.421875 0)"/>
     <use xlink:href="#DejaVuSans-4c" transform="translate(359.515625 0)"/>
     <use xlink:href="#DejaVuSans-52" transform="translate(387.296875 0)"/>
     <use xlink:href="#DejaVuSans-51" transform="translate(448.484375 0)"/>
     <use xlink:href="#DejaVuSans-3" transform="translate(511.859375 0)"/>
     <use xlink:href="#DejaVuSans-26" transform="translate(543.640625 0)"/>
     <use xlink:href="#DejaVuSans-52" transform="translate(613.46875 0)"/>
     <use xlink:href="#DejaVuSans-51" transform="translate(674.65625 0)"/>
     <use xlink:href="#DejaVuSans-57" transform="translate(738.03125 0)"/>
     <use xlink:href="#DejaVuSans-55" transform="translate(777.234375 0)"/>
     <use xlink:href="#DejaVuSans-52" transform="translate(816.140625 0)"/>
     <use xlink:href="#DejaVuSans-4f" transform="translate(877.328125 0)"/>
     <use xlink:href="#DejaVuSans-3" transform="translate(905.109375 0)"/>
     <use xlink:href="#DejaVuSans-37" transform="translate(936.890625 0)"/>
     <use xlink:href="#DejaVuSans-4b" transform="translate(997.96875 0)"/>
     <use xlink:href="#DejaVuSans-55" transform="translate(1061.34375 0)"/>
     <use xlink:href="#DejaVuSans-48" transform="translate(1100.25 0)"/>
     <use xlink:href="#DejaVuSans-56" transform="translate(1161.78125 0)"/>
     <use xlink:href="#DejaVuSans-4b" transform="translate(1213.875 0)"/>
     <use xlink:href="#DejaVuSans-52" transform="translate(1277.25 0)"/>
     <use xlink:href="#DejaVuSans-4f" transform="translate(1338.4375 0)"/>
     <use xlink:href="#DejaVuSans-47" transform="translate(1366.21875 0)"/>
     <use xlink:href="#DejaVuSans-1d" transform="translate(1429.703125 0)"/>
     <use xlink:href="#DejaVuSans-3" transform="translate(1463.390625 0)"/>
     <use xlink:href="#DejaVuSans-25" transform="translate(1495.171875 0)"/>
     <use xlink:href="#DejaVuSans-52" transform="translate(1563.78125 0)"/>
     <use xlink:href="#DejaVuSans-58" transform="translate(1624.96875 0)"/>
     <use xlink:href="#DejaVuSans-51" transform="translate(1688.34375 0)"/>
     <use xlink:href="#DejaVuSans-47" transform="translate(1751.71875 0)"/>
     <use xlink:href="#DejaVuSans-48" transform="translate(1815.203125 0)"/>
     <use xlink:href="#DejaVuSans-47" transform="translate(1876.734375 0)"/>
     <use xlink:href="#DejaVuSans-3" transform="translate(1940.21875 0)"/>
     <use xlink:href="#DejaVuSans-34" transform="translate(1972 0)"/>
     <use xlink:href="#DejaVuSans-58" transform="translate(2050.71875 0)"/>
     <use xlink:href="#DejaVuSans-48" transform="translate(2114.09375 0)"/>
     <use xlink:href="#DejaVuSans-58" transform="translate(2175.625 0)"/>
     <use xlink:href="#DejaVuSans-4c" transform="translate(2239 0)"/>
     <use xlink:href="#DejaVuSans-51" transform="translate(2266.78125 0)"/>
     <use xlink:href="#DejaVuSans-4a" transform="translate(2330.15625 0)"/>
     <use xlink:href="#DejaVuSans-3" transform="translate(2393.640625 0)"/>
     <use xlink:href="#DejaVuSans-59" transform="translate(2425.421875 0)"/>
     <use xlink:href="#DejaVuSans-56" transform="translate(2484.609375 0)"/>
     <use xlink:href="#DejaVuSans-11" transform="translate(2536.703125 0)"/>
     <use xlink:href="#DejaVuSans-3" transform="translate(2568.484375 0)"/>
     <use xlink:href="#DejaVuSans-26" transform="translate(2600.265625 0)"/>
     <use xlink:href="#DejaVuSans-4f" transform="translate(2670.09375 0)"/>
     <use xlink:href="#DejaVuSans-58" transform="translate(2697.875 0)"/>
     <use xlink:href="#DejaVuSans-56" transform="translate(2761.25 0)"/>
     <use xlink:href="#DejaVuSans-57" transform="translate(2813.34375 0)"/>
     <use xlink:href="#DejaVuSans-48" transform="translate(2852.546875 0)"/>
     <use xlink:href="#DejaVuSans-55" transform="translate(2914.078125 0)"/>
     <use xlink:href="#DejaVuSans-10" transform="translate(2948.796875 0)"/>
     <use xlink:href="#DejaVuSans-3a" transform="translate(2980.828125 0)"/>
     <use xlink:href="#DejaVuSans-4c" transform="translate(3077.5 0)"/>
     <use xlink:href="#DejaVuSans-47" transform="translate(3105.28125 0)"/>
     <use xlink:href="#DejaVuSans-48" transform="translate(3168.765625 0)"/>
     <use xlink:href="#DejaVuSans-3" transform="translate(3230.296875 0)"/>
     <use xlink:href="#DejaVuSans-26" transform="translate(3262.078125 0)"/>
     <use xlink:href="#DejaVuSans-52" transform="translate(3331.90625 0)"/>
     <use xlink:href="#DejaVuSans-4f" transform="translate(3393.09375 0)"/>
     <use xlink:href="#DejaVuSans-4f" transform="translate(3420.875 0)"/>
     <use xlink:href="#DejaVuSans-44" transform="translate(3448.65625 0)"/>
     <use xlink:href="#DejaVuSans-53" transform="translate(3509.9375 0)"/>
     <use xlink:href="#DejaVuSans-56" transform="translate(3573.421875 0)"/>
     <use xlink:href="#DejaVuSans-48" transform="translate(3625.515625 0)"/>
    </g>
   </g>
   <g id="legend_1">
    <g id="patch_5">
     <path d="M 50.998438 74.780078 
L 225.068281 74.780078 
Q 226.868281 74.780078 226.868281 72.980078 
L 226.868281 33.377969 
Q 226.868281 31.577969 225.068281 31.577969 
L 50.998438 31.577969 
Q 49.198438 31.577969 49.198438 33.377969 
L 49.198438 72.980078 
Q 49.198438 74.780078 50.998438 74.780078 
z
" style="fill: #ffffff; opacity: 0.85; stroke: #cccccc; stroke-linejoin: miter"/>
    </g>
    <g id="line2d_29">
     <path d="M 52.798438 38.866563 
L 61.798438 38.866563 
L 70.798438 38.866563 
" style="fill: none; stroke: #d55e00; stroke-width: 2.2; stroke-linecap: round"/>
    </g>
    <g id="text_17">
     <!-- No admission control -->
     <g transform="translate(77.998438 42.016563) scale(0.09 -0.09)">
      <use xlink:href="#DejaVuSans-31"/>
      <use xlink:href="#DejaVuSans-52" transform="translate(74.8125 0)"/>
      <use xlink:href="#DejaVuSans-3" transform="translate(136 0)"/>
      <use xlink:href="#DejaVuSans-44" transform="translate(167.78125 0)"/>
      <use xlink:href="#DejaVuSans-47" transform="translate(229.0625 0)"/>
      <use xlink:href="#DejaVuSans-50" transform="translate(292.546875 0)"/>
      <use xlink:href="#DejaVuSans-4c" transform="translate(389.953125 0)"/>
      <use xlink:href="#DejaVuSans-56" transform="translate(417.734375 0)"/>
      <use xlink:href="#DejaVuSans-56" transform="translate(469.828125 0)"/>
      <use xlink:href="#DejaVuSans-4c" transform="translate(521.921875 0)"/>
      <use xlink:href="#DejaVuSans-52" transform="translate(549.703125 0)"/>
      <use xlink:href="#DejaVuSans-51" transform="translate(610.890625 0)"/>
      <use xlink:href="#DejaVuSans-3" transform="translate(674.265625 0)"/>
      <use xlink:href="#DejaVuSans-46" transform="translate(706.046875 0)"/>
      <use xlink:href="#DejaVuSans-52" transform="translate(761.03125 0)"/>
      <use xlink:href="#DejaVuSans-51" transform="translate(822.21875 0)"/>
      <use xlink:href="#DejaVuSans-57" transform="translate(885.59375 0)"/>
      <use xlink:href="#DejaVuSans-55" transform="translate(924.796875 0)"/>
      <use xlink:href="#DejaVuSans-52" transform="translate(963.703125 0)"/>
      <use xlink:href="#DejaVuSans-4f" transform="translate(1024.890625 0)"/>
     </g>
    </g>
    <g id="line2d_30">
     <path d="M 52.798438 52.367266 
L 61.798438 52.367266 
L 70.798438 52.367266 
" style="fill: none; stroke: #e69f00; stroke-width: 2.2; stroke-linecap: round"/>
    </g>
    <g id="text_18">
     <!-- Loose threshold (1.5x capacity) -->
     <g transform="translate(77.998438 55.517266) scale(0.09 -0.09)">
      <defs>
       <path id="DejaVuSans-2f" d="M 628 4666 
L 1259 4666 
L 1259 531 
L 3531 531 
L 3531 0 
L 628 0 
L 628 4666 
z
" transform="scale(0.015625)"/>
       <path id="DejaVuSans-5b" d="M 3513 3500 
L 2247 1797 
L 3578 0 
L 2900 0 
L 1881 1375 
L 863 0 
L 184 0 
L 1544 1831 
L 300 3500 
L 978 3500 
L 1906 2253 
L 2834 3500 
L 3513 3500 
z
" transform="scale(0.015625)"/>
      </defs>
      <use xlink:href="#DejaVuSans-2f"/>
      <use xlink:href="#DejaVuSans-52" transform="translate(53.96875 0)"/>
      <use xlink:href="#DejaVuSans-52" transform="translate(115.15625 0)"/>
      <use xlink:href="#DejaVuSans-56" transform="translate(176.34375 0)"/>
      <use xlink:href="#DejaVuSans-48" transform="translate(228.4375 0)"/>
      <use xlink:href="#DejaVuSans-3" transform="translate(289.96875 0)"/>
      <use xlink:href="#DejaVuSans-57" transform="translate(321.75 0)"/>
      <use xlink:href="#DejaVuSans-4b" transform="translate(360.953125 0)"/>
      <use xlink:href="#DejaVuSans-55" transform="translate(424.328125 0)"/>
      <use xlink:href="#DejaVuSans-48" transform="translate(463.234375 0)"/>
      <use xlink:href="#DejaVuSans-56" transform="translate(524.765625 0)"/>
      <use xlink:href="#DejaVuSans-4b" transform="translate(576.859375 0)"/>
      <use xlink:href="#DejaVuSans-52" transform="translate(640.234375 0)"/>
      <use xlink:href="#DejaVuSans-4f" transform="translate(701.421875 0)"/>
      <use xlink:href="#DejaVuSans-47" transform="translate(729.203125 0)"/>
      <use xlink:href="#DejaVuSans-3" transform="translate(792.6875 0)"/>
      <use xlink:href="#DejaVuSans-b" transform="translate(824.46875 0)"/>
      <use xlink:href="#DejaVuSans-14" transform="translate(863.484375 0)"/>
      <use xlink:href="#DejaVuSans-11" transform="translate(927.109375 0)"/>
      <use xlink:href="#DejaVuSans-18" transform="translate(958.890625 0)"/>
      <use xlink:href="#DejaVuSans-5b" transform="translate(1022.515625 0)"/>
      <use xlink:href="#DejaVuSans-3" transform="translate(1081.703125 0)"/>
      <use xlink:href="#DejaVuSans-46" transform="translate(1113.484375 0)"/>
      <use xlink:href="#DejaVuSans-44" transform="translate(1168.46875 0)"/>
      <use xlink:href="#DejaVuSans-53" transform="translate(1229.75 0)"/>
      <use xlink:href="#DejaVuSans-44" transform="translate(1293.234375 0)"/>
      <use xlink:href="#DejaVuSans-46" transform="translate(1354.515625 0)"/>
      <use xlink:href="#DejaVuSans-4c" transform="translate(1409.5 0)"/>
      <use xlink:href="#DejaVuSans-57" transform="translate(1437.28125 0)"/>
      <use xlink:href="#DejaVuSans-5c" transform="translate(1476.484375 0)"/>
      <use xlink:href="#DejaVuSans-c" transform="translate(1535.671875 0)"/>
     </g>
    </g>
    <g id="line2d_31">
     <path d="M 52.798438 65.867969 
L 61.798438 65.867969 
L 70.798438 65.867969 
" style="fill: none; stroke: #0072b2; stroke-width: 2.2; stroke-linecap: round"/>
    </g>
    <g id="text_19">
     <!-- Strict threshold (1.05x capacity) -->
     <g transform="translate(77.998438 69.017969) scale(0.09 -0.09)">
      <defs>
       <path id="DejaVuSans-36" d="M 3425 4513 
L 3425 3897 
Q 3066 4069 2747 4153 
Q 2428 4238 2131 4238 
Q 1616 4238 1336 4038 
Q 1056 3838 1056 3469 
Q 1056 3159 1242 3001 
Q 1428 2844 1947 2747 
L 2328 2669 
Q 3034 2534 3370 2195 
Q 3706 1856 3706 1288 
Q 3706 609 3251 259 
Q 2797 -91 1919 -91 
Q 1588 -91 1214 -16 
Q 841 59 441 206 
L 441 856 
Q 825 641 1194 531 
Q 1563 422 1919 422 
Q 2459 422 2753 634 
Q 3047 847 3047 1241 
Q 3047 1584 2836 1778 
Q 2625 1972 2144 2069 
L 1759 2144 
Q 1053 2284 737 2584 
Q 422 2884 422 3419 
Q 422 4038 858 4394 
Q 1294 4750 2059 4750 
Q 2388 4750 2728 4690 
Q 3069 4631 3425 4513 
z
" transform="scale(0.015625)"/>
      </defs>
      <use xlink:href="#DejaVuSans-36"/>
      <use xlink:href="#DejaVuSans-57" transform="translate(63.484375 0)"/>
      <use xlink:href="#DejaVuSans-55" transform="translate(102.6875 0)"/>
      <use xlink:href="#DejaVuSans-4c" transform="translate(143.796875 0)"/>
      <use xlink:href="#DejaVuSans-46" transform="translate(171.578125 0)"/>
      <use xlink:href="#DejaVuSans-57" transform="translate(226.5625 0)"/>
      <use xlink:href="#DejaVuSans-3" transform="translate(265.765625 0)"/>
      <use xlink:href="#DejaVuSans-57" transform="translate(297.546875 0)"/>
      <use xlink:href="#DejaVuSans-4b" transform="translate(336.75 0)"/>
      <use xlink:href="#DejaVuSans-55" transform="translate(400.125 0)"/>
      <use xlink:href="#DejaVuSans-48" transform="translate(439.03125 0)"/>
      <use xlink:href="#DejaVuSans-56" transform="translate(500.5625 0)"/>
      <use xlink:href="#DejaVuSans-4b" transform="translate(552.65625 0)"/>
      <use xlink:href="#DejaVuSans-52" transform="translate(616.03125 0)"/>
      <use xlink:href="#DejaVuSans-4f" transform="translate(677.21875 0)"/>
      <use xlink:href="#DejaVuSans-47" transform="translate(705 0)"/>
      <use xlink:href="#DejaVuSans-3" transform="translate(768.484375 0)"/>
      <use xlink:href="#DejaVuSans-b" transform="translate(800.265625 0)"/>
      <use xlink:href="#DejaVuSans-14" transform="translate(839.28125 0)"/>
      <use xlink:href="#DejaVuSans-11" transform="translate(902.90625 0)"/>
      <use xlink:href="#DejaVuSans-13" transform="translate(934.6875 0)"/>
      <use xlink:href="#DejaVuSans-18" transform="translate(998.3125 0)"/>
      <use xlink:href="#DejaVuSans-5b" transform="translate(1061.9375 0)"/>
      <use xlink:href="#DejaVuSans-3" transform="translate(1121.125 0)"/>
      <use xlink:href="#DejaVuSans-46" transform="translate(1152.90625 0)"/>
      <use xlink:href="#DejaVuSans-44" transform="translate(1207.890625 0)"/>
      <use xlink:href="#DejaVuSans-53" transform="translate(1269.171875 0)"/>
      <use xlink:href="#DejaVuSans-44" transform="translate(1332.65625 0)"/>
      <use xlink:href="#DejaVuSans-46" transform="translate(1393.9375 0)"/>
      <use xlink:href="#DejaVuSans-4c" transform="translate(1448.921875 0)"/>
      <use xlink:href="#DejaVuSans-57" transform="translate(1476.703125 0)"/>
      <use xlink:href="#DejaVuSans-5c" transform="translate(1515.90625 0)"/>
      <use xlink:href="#DejaVuSans-c" transform="translate(1575.09375 0)"/>
     </g>
    </g>
   </g>
  </g>
 </g>
 <defs>
  <clipPath id="p5fc358635b">
   <rect x="44.698438" y="27.077969" width="446.4" height="277.2"/>
  </clipPath>
 </defs>
</svg>
