<?xml version="1.0" encoding="utf-8" standalone="no"?>
<!DOCTYPE svg PUBLIC "-//W3C//DTD SVG 1.1//EN"
  "http://www.w3.org/Graphics/SVG/1.1/DTD/svg11.dtd">
<svg xmlns:xlink="http://www.w3.org/1999/xlink" width="782.238437pt" height="355.320937pt" viewBox="0 0 782.238437 355.320937" xmlns="http://www.w3.org/2000/svg" version="1.1">
 <metadata>
  <rdf:RDF xmlns:dc="http://purl.org/dc/elements/1.1/" xmlns:cc="http://creativecommons.org/ns#" xmlns:rdf="http://www.w3.org/1999/02/22-rdf-syntax-ns#">
   <cc:Work>
    <dc:type rdf:resource="http://purl.org/dc/dcmitype/StillImage"/>
    <dc:date>2026-07-22T10:46:27.402869</dc:date>
    <dc:format>image/svg+xml</dc:format>
    <dc:creator>
     <cc:Agent>
      <dc:title>Matplotlib v3.11.1, https://matplotlib.org/</dc:title>
     </cc:Agent>
    </dc:creator>
   </cc:Work>
  </rdf:RDF>
 </metadata>
 <defs>
  <style type="text/css">*{stroke-linejoin: round; stroke-linecap: butt}</style>
 </defs>
 <g id="figure_1">
  <g id="patch_1">
   <path d="M 0 355.320937 
L 782.238437 355.320937 
L 782.238437 0 
L 0 0 
z
" style="fill: #ffffff"/>
  </g>
  <g id="axes_1">
   <g id="patch_2">
    <path d="M 44.698438 313.62 
L 401.928437 313.62 
L 401.928437 77.236953 
L 44.698438 77.236953 
z
" style="fill: #ffffff"/>
   </g>
   <g id="patch_3">
    <path d="M 60.936165 313.62 
L 67.463894 313.62 
L 67.463894 285.178569 
L 60.936165 285.178569 
z
" clip-path="url(#p7650093568)" style="fill: #d55e00"/>
   </g>
   <g id="patch_4">
    <path d="M 69.095827 313.62 
L 75.623556 313.62 
L 75.623556 284.121011 
L 69.095827 284.121011 
z
" clip-path="url(#p7650093568)" style="fill: #d55e00"/>
   </g>
   <g id="patch_5">
    <path d="M 77.255489 313.62 
L 83.783218 313.62 
L 83.783218 286.157401 
L 77.255489 286.157401 
z
" clip-path="url(#p7650093568)" style="fill: #d55e00"/>
   </g>
   <g id="patch_6">
    <path d="M 85.415151 313.62 
L 91.94288 313.62 
L 91.94288 288.348668 
L 85.415151 288.348668 
z
" clip-path="url(#p7650093568)" style="fill: #d55e00"/>
   </g>
   <g id="patch_7">
    <path d="M 93.574813 313.62 
L 100.102542 313.62 
L 100.102542 286.799129 
L 93.574813 286.799129 
z
" clip-path="url(#p7650093568)" style="fill: #d55e00"/>
   </g>
   <g id="patch_8">
    <path d="M 101.734475 313.62 
L 108.262204 313.62 
L 108.262204 288.707881 
L 101.734475 288.707881 
z
" clip-path="url(#p7650093568)" style="fill: #d55e00"/>
   </g>
   <g id="patch_9">
    <path d="M 109.894136 313.62 
L 116.421866 313.62 
L 116.421866 284.969153 
L 109.894136 284.969153 
z
" clip-path="url(#p7650093568)" style="fill: #d55e00"/>
   </g>
   <g id="patch_10">
    <path d="M 118.053798 313.62 
L 124.581528 313.62 
L 124.581528 280.418969 
L 118.053798 280.418969 
z
" clip-path="url(#p7650093568)" style="fill: #d55e00"/>
   </g>
   <g id="patch_11">
    <path d="M 126.21346 313.62 
L 132.74119 313.62 
L 132.74119 286.932555 
L 126.21346 286.932555 
z
" clip-path="url(#p7650093568)" style="fill: #d55e00"/>
   </g>
   <g id="patch_12">
    <path d="M 134.373122 313.62 
L 140.900852 313.62 
L 140.900852 287.388502 
L 134.373122 287.388502 
z
" clip-path="url(#p7650093568)" style="fill: #d55e00"/>
   </g>
   <g id="patch_13">
    <path d="M 142.532784 313.62 
L 149.060514 313.62 
L 149.060514 283.441733 
L 142.532784 283.441733 
z
" clip-path="url(#p7650093568)" style="fill: #d55e00"/>
   </g>
   <g id="patch_14">
    <path d="M 150.692446 313.62 
L 157.220176 313.62 
L 157.220176 283.91434 
L 150.692446 283.91434 
z
" clip-path="url(#p7650093568)" style="fill: #d55e00"/>
   </g>
   <g id="patch_15">
    <path d="M 158.852108 313.62 
L 165.379838 313.62 
L 165.379838 284.808233 
L 158.852108 284.808233 
z
" clip-path="url(#p7650093568)" style="fill: #d55e00"/>
   </g>
   <g id="patch_16">
    <path d="M 167.01177 313.62 
L 173.5395 313.62 
L 173.5395 288.490413 
L 167.01177 288.490413 
z
" clip-path="url(#p7650093568)" style="fill: #d55e00"/>
   </g>
   <g id="patch_17">
    <path d="M 175.171432 313.62 
L 181.699162 313.62 
L 181.699162 285.286921 
L 175.171432 285.286921 
z
" clip-path="url(#p7650093568)" style="fill: #d55e00"/>
   </g>
   <g id="patch_18">
    <path d="M 183.331094 313.62 
L 189.858824 313.62 
L 189.858824 282.711395 
L 183.331094 282.711395 
z
" clip-path="url(#p7650093568)" style="fill: #d55e00"/>
   </g>
   <g id="patch_19">
    <path d="M 191.490756 313.62 
L 198.018485 313.62 
L 198.018485 289.96113 
L 191.490756 289.96113 
z
" clip-path="url(#p7650093568)" style="fill: #d55e00"/>
   </g>
   <g id="patch_20">
    <path d="M 199.650418 313.62 
L 206.178147 313.62 
L 206.178147 286.809597 
L 199.650418 286.809597 
z
" clip-path="url(#p7650093568)" style="fill: #d55e00"/>
   </g>
   <g id="patch_21">
    <path d="M 207.81008 313.62 
L 214.337809 313.62 
L 214.337809 291.941089 
L 207.81008 291.941089 
z
" clip-path="url(#p7650093568)" style="fill: #d55e00"/>
   </g>
   <g id="patch_22">
    <path d="M 215.969742 313.62 
L 222.497471 313.62 
L 222.497471 289.766774 
L 215.969742 289.766774 
z
" clip-path="url(#p7650093568)" style="fill: #d55e00"/>
   </g>
   <g id="patch_23">
    <path d="M 224.129404 313.62 
L 230.657133 313.62 
L 230.657133 88.493289 
L 224.129404 88.493289 
z
" clip-path="url(#p7650093568)" style="fill: #d55e00"/>
   </g>
   <g id="patch_24">
    <path d="M 232.289066 313.62 
L 238.816795 313.62 
L 238.816795 286.018604 
L 232.289066 286.018604 
z
" clip-path="url(#p7650093568)" style="fill: #d55e00"/>
   </g>
   <g id="patch_25">
    <path d="M 240.448728 313.62 
L 246.976457 313.62 
L 246.976457 289.688248 
L 240.448728 289.688248 
z
" clip-path="url(#p7650093568)" style="fill: #d55e00"/>
   </g>
   <g id="patch_26">
    <path d="M 248.60839 313.62 
L 255.136119 313.62 
L 255.136119 284.218697 
L 248.60839 284.218697 
z
" clip-path="url(#p7650093568)" style="fill: #d55e00"/>
   </g>
   <g id="patch_27">
    <path d="M 256.768051 313.62 
L 263.295781 313.62 
L 263.295781 284.625749 
L 256.768051 284.625749 
z
" clip-path="url(#p7650093568)" style="fill: #d55e00"/>
   </g>
   <g id="patch_28">
    <path d="M 264.927713 313.62 
L 271.455443 313.62 
L 271.455443 285.847412 
L 264.927713 285.847412 
z
" clip-path="url(#p7650093568)" style="fill: #d55e00"/>
   </g>
   <g id="patch_29">
    <path d="M 273.087375 313.62 
L 279.615105 313.62 
L 279.615105 294.129097 
L 273.087375 294.129097 
z
" clip-path="url(#p7650093568)" style="fill: #d55e00"/>
   </g>
   <g id="patch_30">
    <path d="M 281.247037 313.62 
L 287.774767 313.62 
L 287.774767 287.097797 
L 281.247037 287.097797 
z
" clip-path="url(#p7650093568)" style="fill: #d55e00"/>
   </g>
   <g id="patch_31">
    <path d="M 289.406699 313.62 
L 295.934429 313.62 
L 295.934429 285.355345 
L 289.406699 285.355345 
z
" clip-path="url(#p7650093568)" style="fill: #d55e00"/>
   </g>
   <g id="patch_32">
    <path d="M 297.566361 313.62 
L 304.094091 313.62 
L 304.094091 284.78017 
L 297.566361 284.78017 
z
" clip-path="url(#p7650093568)" style="fill: #d55e00"/>
   </g>
   <g id="patch_33">
    <path d="M 305.726023 313.62 
L 312.253753 313.62 
L 312.253753 290.622012 
L 305.726023 290.622012 
z
" clip-path="url(#p7650093568)" style="fill: #d55e00"/>
   </g>
   <g id="patch_34">
    <path d="M 313.885685 313.62 
L 320.413415 313.62 
L 320.413415 286.881179 
L 313.885685 286.881179 
z
" clip-path="url(#p7650093568)" style="fill: #d55e00"/>
   </g>
   <g id="patch_35">
    <path d="M 322.045347 313.62 
L 328.573077 313.62 
L 328.573077 288.661217 
L 322.045347 288.661217 
z
" clip-path="url(#p7650093568)" style="fill: #d55e00"/>
   </g>
   <g id="patch_36">
    <path d="M 330.205009 313.62 
L 336.732739 313.62 
L 336.732739 288.058061 
L 330.205009 288.058061 
z
" clip-path="url(#p7650093568)" style="fill: #d55e00"/>
   </g>
   <g id="patch_37">
    <path d="M 338.364671 313.62 
L 344.8924 313.62 
L 344.8924 281.411837 
L 338.364671 281.411837 
z
" clip-path="url(#p7650093568)" style="fill: #d55e00"/>
   </g>
   <g id="patch_38">
    <path d="M 346.524333 313.62 
L 353.052062 313.62 
L 353.052062 288.053431 
L 346.524333 288.053431 
z
" clip-path="url(#p7650093568)" style="fill: #d55e00"/>
   </g>
   <g id="patch_39">
    <path d="M 354.683995 313.62 
L 361.211724 313.62 
L 361.211724 285.298544 
L 354.683995 285.298544 
z
" clip-path="url(#p7650093568)" style="fill: #d55e00"/>
   </g>
   <g id="patch_40">
    <path d="M 362.843657 313.62 
L 369.371386 313.62 
L 369.371386 282.039261 
L 362.843657 282.039261 
z
" clip-path="url(#p7650093568)" style="fill: #d55e00"/>
   </g>
   <g id="patch_41">
    <path d="M 371.003319 313.62 
L 377.531048 313.62 
L 377.531048 287.257427 
L 371.003319 287.257427 
z
" clip-path="url(#p7650093568)" style="fill: #d55e00"/>
   </g>
   <g id="patch_42">
    <path d="M 379.162981 313.62 
L 385.69071 313.62 
L 385.69071 285.580001 
L 379.162981 285.580001 
z
" clip-path="url(#p7650093568)" style="fill: #d55e00"/>
   </g>
   <g id="matplotlib.axis_1">
    <g id="xtick_1">
     <g id="line2d_1">
      <path d="M 64.20003 313.62 
L 64.20003 77.236953 
" clip-path="url(#p7650093568)" style="fill: none; stroke-dasharray: 2.22,0.96; stroke-dashoffset: 0; stroke: #b0b0b0; stroke-opacity: 0.25; stroke-width: 0.6"/>
     </g>
     <g id="line2d_2">
      <defs>
       <path id="m408c4f9fcc" d="M 0 0 
L 0 4 
" style="stroke: #000000; stroke-width: 0.8"/>
      </defs>
      <g>
       <use xlink:href="#m408c4f9fcc" x="64.20003" y="313.62" style="stroke: #000000; stroke-width: 0.8"/>
      </g>
     </g>
     <g id="text_1">
      <!-- 0 -->
      <g transform="translate(60.700655 329.477422) scale(0.11 -0.11)">
       <defs>
        <path id="DejaVuSans-13" d="M 2034 4250 
Q 1547 4250 1301 3770 
Q 1056 3291 1056 2328 
Q 1056 1369 1301 889 
Q 1547 409 2034 409 
Q 2525 409 2770 889 
Q 3016 1369 3016 2328 
Q 3016 3291 2770 3770 
Q 2525 4250 2034 4250 
z
M 2034 4750 
Q 2819 4750 3233 4129 
Q 3647 3509 3647 2328 
Q 3647 1150 3233 529 
Q 2819 -91 2034 -91 
Q 1250 -91 836 529 
Q 422 1150 422 2328 
Q 422 3509 836 4129 
Q 1250 4750 2034 4750 
z
" transform="scale(0.015625)"/>
       </defs>
       <use xlink:href="#DejaVuSans-13"/>
      </g>
     </g>
    </g>
    <g id="xtick_2">
     <g id="line2d_3">
      <path d="M 104.998339 313.62 
L 104.998339 77.236953 
" clip-path="url(#p7650093568)" style="fill: none; stroke-dasharray: 2.22,0.96; stroke-dashoffset: 0; stroke: #b0b0b0; stroke-opacity: 0.25; stroke-width: 0.6"/>
     </g>
     <g id="line2d_4">
      <g>
       <use xlink:href="#m408c4f9fcc" x="104.998339" y="313.62" style="stroke: #000000; stroke-width: 0.8"/>
      </g>
     </g>
     <g id="text_2">
      <!-- 5 -->
      <g transform="translate(101.498964 329.477422) scale(0.11 -0.11)">
       <defs>
        <path id="DejaVuSans-18" d="M 691 4666 
L 3169 4666 
L 3169 4134 
L 1269 4134 
L 1269 2991 
Q 1406 3038 1543 3061 
Q 1681 3084 1819 3084 
Q 2600 3084 3056 2656 
Q 3513 2228 3513 1497 
Q 3513 744 3044 326 
Q 2575 -91 1722 -91 
Q 1428 -91 1123 -41 
Q 819 9 494 109 
L 494 744 
Q 775 591 1075 516 
Q 1375 441 1709 441 
Q 2250 441 2565 725 
Q 2881 1009 2881 1497 
Q 2881 1984 2565 2268 
Q 2250 2553 1709 2553 
Q 1456 2553 1204 2497 
Q 953 2441 691 2322 
L 691 4666 
z
" transform="scale(0.015625)"/>
       </defs>
       <use xlink:href="#DejaVuSans-18"/>
      </g>
     </g>
    </g>
    <g id="xtick_3">
     <g id="line2d_5">
      <path d="M 145.796649 313.62 
L 145.796649 77.236953 
" clip-path="url(#p7650093568)" style="fill: none; stroke-dasharray: 2.22,0.96; stroke-dashoffset: 0; stroke: #b0b0b0; stroke-opacity: 0.25; stroke-width: 0.6"/>
     </g>
     <g id="line2d_6">
      <g>
       <use xlink:href="#m408c4f9fcc" x="145.796649" y="313.62" style="stroke: #000000; stroke-width: 0.8"/>
      </g>
     </g>
     <g id="text_3">
      <!-- 10 -->
      <g transform="translate(138.797899 329.477422) scale(0.11 -0.11)">
       <defs>
        <path id="DejaVuSans-14" d="M 794 531 
L 1825 531 
L 1825 4091 
L 703 3866 
L 703 4441 
L 1819 4666 
L 2450 4666 
L 2450 531 
L 3481 531 
L 3481 0 
L 794 0 
L 794 531 
z
" transform="scale(0.015625)"/>
       </defs>
       <use xlink:href="#DejaVuSans-14"/>
       <use xlink:href="#DejaVuSans-13" transform="translate(63.625 0)"/>
      </g>
     </g>
    </g>
    <g id="xtick_4">
     <g id="line2d_7">
      <path d="M 186.594959 313.62 
L 186.594959 77.236953 
" clip-path="url(#p7650093568)" style="fill: none; stroke-dasharray: 2.22,0.96; stroke-dashoffset: 0; stroke: #b0b0b0; stroke-opacity: 0.25; stroke-width: 0.6"/>
     </g>
     <g id="line2d_8">
      <g>
       <use xlink:href="#m408c4f9fcc" x="186.594959" y="313.62" style="stroke: #000000; stroke-width: 0.8"/>
      </g>
     </g>
     <g id="text_4">
      <!-- 15 -->
      <g transform="translate(179.596209 329.477422) scale(0.11 -0.11)">
       <use xlink:href="#DejaVuSans-14"/>
       <use xlink:href="#DejaVuSans-18" transform="translate(63.625 0)"/>
      </g>
     </g>
    </g>
    <g id="xtick_5">
     <g id="line2d_9">
      <path d="M 227.393268 313.62 
L 227.393268 77.236953 
" clip-path="url(#p7650093568)" style="fill: none; stroke-dasharray: 2.22,0.96; stroke-dashoffset: 0; stroke: #b0b0b0; stroke-opacity: 0.25; stroke-width: 0.6"/>
     </g>
     <g id="line2d_10">
      <g>
       <use xlink:href="#m408c4f9fcc" x="227.393268" y="313.62" style="stroke: #000000; stroke-width: 0.8"/>
      </g>
     </g>
     <g id="text_5">
      <!-- 20 -->
      <g transform="translate(220.394518 329.477422) scale(0.11 -0.11)">
       <defs>
        <path id="DejaVuSans-15" d="M 1228 531 
L 3431 531 
L 3431 0 
L 469 0 
L 469 531 
Q 828 903 1448 1529 
Q 2069 2156 2228 2338 
Q 2531 2678 2651 2914 
Q 2772 3150 2772 3378 
Q 2772 3750 2511 3984 
Q 2250 4219 1831 4219 
Q 1534 4219 1204 4116 
Q 875 4013 500 3803 
L 500 4441 
Q 881 4594 1212 4672 
Q 1544 4750 1819 4750 
Q 2544 4750 2975 4387 
Q 3406 4025 3406 3419 
Q 3406 3131 3298 2873 
Q 3191 2616 2906 2266 
Q 2828 2175 2409 1742 
Q 1991 1309 1228 531 
z
" transform="scale(0.015625)"/>
       </defs>
       <use xlink:href="#DejaVuSans-15"/>
       <use xlink:href="#DejaVuSans-13" transform="translate(63.625 0)"/>
      </g>
     </g>
    </g>
    <g id="xtick_6">
     <g id="line2d_11">
      <path d="M 268.191578 313.62 
L 268.191578 77.236953 
" clip-path="url(#p7650093568)" style="fill: none; stroke-dasharray: 2.22,0.96; stroke-dashoffset: 0; stroke: #b0b0b0; stroke-opacity: 0.25; stroke-width: 0.6"/>
     </g>
     <g id="line2d_12">
      <g>
       <use xlink:href="#m408c4f9fcc" x="268.191578" y="313.62" style="stroke: #000000; stroke-width: 0.8"/>
      </g>
     </g>
     <g id="text_6">
      <!-- 25 -->
      <g transform="translate(261.192828 329.477422) scale(0.11 -0.11)">
       <use xlink:href="#DejaVuSans-15"/>
       <use xlink:href="#DejaVuSans-18" transform="translate(63.625 0)"/>
      </g>
     </g>
    </g>
    <g id="xtick_7">
     <g id="line2d_13">
      <path d="M 308.989888 313.62 
L 308.989888 77.236953 
" clip-path="url(#p7650093568)" style="fill: none; stroke-dasharray: 2.22,0.96; stroke-dashoffset: 0; stroke: #b0b0b0; stroke-opacity: 0.25; stroke-width: 0.6"/>
     </g>
     <g id="line2d_14">
      <g>
       <use xlink:href="#m408c4f9fcc" x="308.989888" y="313.62" style="stroke: #000000; stroke-width: 0.8"/>
      </g>
     </g>
     <g id="text_7">
      <!-- 30 -->
      <g transform="translate(301.991138 329.477422) scale(0.11 -0.11)">
       <defs>
        <path id="DejaVuSans-16" d="M 2597 2516 
Q 3050 2419 3304 2112 
Q 3559 1806 3559 1356 
Q 3559 666 3084 287 
Q 2609 -91 1734 -91 
Q 1441 -91 1130 -33 
Q 819 25 488 141 
L 488 750 
Q 750 597 1062 519 
Q 1375 441 1716 441 
Q 2309 441 2620 675 
Q 2931 909 2931 1356 
Q 2931 1769 2642 2001 
Q 2353 2234 1838 2234 
L 1294 2234 
L 1294 2753 
L 1863 2753 
Q 2328 2753 2575 2939 
Q 2822 3125 2822 3475 
Q 2822 3834 2567 4026 
Q 2313 4219 1838 4219 
Q 1578 4219 1281 4162 
Q 984 4106 628 3988 
L 628 4550 
Q 988 4650 1302 4700 
Q 1616 4750 1894 4750 
Q 2613 4750 3031 4423 
Q 3450 4097 3450 3541 
Q 3450 3153 3228 2886 
Q 3006 2619 2597 2516 
z
" transform="scale(0.015625)"/>
       </defs>
       <use xlink:href="#DejaVuSans-16"/>
       <use xlink:href="#DejaVuSans-13" transform="translate(63.625 0)"/>
      </g>
     </g>
    </g>
    <g id="xtick_8">
     <g id="line2d_15">
      <path d="M 349.788198 313.62 
L 349.788198 77.236953 
" clip-path="url(#p7650093568)" style="fill: none; stroke-dasharray: 2.22,0.96; stroke-dashoffset: 0; stroke: #b0b0b0; stroke-opacity: 0.25; stroke-width: 0.6"/>
     </g>
     <g id="line2d_16">
      <g>
       <use xlink:href="#m408c4f9fcc" x="349.788198" y="313.62" style="stroke: #000000; stroke-width: 0.8"/>
      </g>
     </g>
     <g id="text_8">
      <!-- 35 -->
      <g transform="translate(342.789448 329.477422) scale(0.11 -0.11)">
       <use xlink:href="#DejaVuSans-16"/>
       <use xlink:href="#DejaVuSans-18" transform="translate(63.625 0)"/>
      </g>
     </g>
    </g>
    <g id="xtick_9">
     <g id="line2d_17">
      <path d="M 390.586507 313.62 
L 390.586507 77.236953 
" clip-path="url(#p7650093568)" style="fill: none; stroke-dasharray: 2.22,0.96; stroke-dashoffset: 0; stroke: #b0b0b0; stroke-opacity: 0.25; stroke-width: 0.6"/>
     </g>
     <g id="line2d_18">
      <g>
       <use xlink:href="#m408c4f9fcc" x="390.586507" y="313.62" style="stroke: #000000; stroke-width: 0.8"/>
      </g>
     </g>
     <g id="text_9">
      <!-- 40 -->
      <g transform="translate(383.587757 329.477422) scale(0.11 -0.11)">
       <defs>
        <path id="DejaVuSans-17" d="M 2419 4116 
L 825 1625 
L 2419 1625 
L 2419 4116 
z
M 2253 4666 
L 3047 4666 
L 3047 1625 
L 3713 1625 
L 3713 1100 
L 3047 1100 
L 3047 0 
L 2419 0 
L 2419 1100 
L 313 1100 
L 313 1709 
L 2253 4666 
z
" transform="scale(0.015625)"/>
       </defs>
       <use xlink:href="#DejaVuSans-17"/>
       <use xlink:href="#DejaVuSans-13" transform="translate(63.625 0)"/>
      </g>
     </g>
    </g>
    <g id="text_10">
     <!-- Task ID -->
     <g transform="translate(202.067812 345.238125) scale(0.12 -0.12)">
      <defs>
       <path id="DejaVuSans-37" d="M -19 4666 
L 3928 4666 
L 3928 4134 
L 2272 4134 
L 2272 0 
L 1638 0 
L 1638 4134 
L -19 4134 
L -19 4666 
z
" transform="scale(0.015625)"/>
       <path id="DejaVuSans-44" d="M 2194 1759 
Q 1497 1759 1228 1600 
Q 959 1441 959 1056 
Q 959 750 1161 570 
Q 1363 391 1709 391 
Q 2188 391 2477 730 
Q 2766 1069 2766 1631 
L 2766 1759 
L 2194 1759 
z
M 3341 1997 
L 3341 0 
L 2766 0 
L 2766 531 
Q 2569 213 2275 61 
Q 1981 -91 1556 -91 
Q 1019 -91 701 211 
Q 384 513 384 1019 
Q 384 1609 779 1909 
Q 1175 2209 1959 2209 
L 2766 2209 
L 2766 2266 
Q 2766 2663 2505 2880 
Q 2244 3097 1772 3097 
Q 1472 3097 1187 3025 
Q 903 2953 641 2809 
L 641 3341 
Q 956 3463 1253 3523 
Q 1550 3584 1831 3584 
Q 2591 3584 2966 3190 
Q 3341 2797 3341 1997 
z
" transform="scale(0.015625)"/>
       <path id="DejaVuSans-56" d="M 2834 3397 
L 2834 2853 
Q 2591 2978 2328 3040 
Q 2066 3103 1784 3103 
Q 1356 3103 1142 2972 
Q 928 2841 928 2578 
Q 928 2378 1081 2264 
Q 1234 2150 1697 2047 
L 1894 2003 
Q 2506 1872 2764 1633 
Q 3022 1394 3022 966 
Q 3022 478 2636 193 
Q 2250 -91 1575 -91 
Q 1294 -91 989 -36 
Q 684 19 347 128 
L 347 722 
Q 666 556 975 473 
Q 1284 391 1588 391 
Q 1994 391 2212 530 
Q 2431 669 2431 922 
Q 2431 1156 2273 1281 
Q 2116 1406 1581 1522 
L 1381 1569 
Q 847 1681 609 1914 
Q 372 2147 372 2553 
Q 372 3047 722 3315 
Q 1072 3584 1716 3584 
Q 2034 3584 2315 3537 
Q 2597 3491 2834 3397 
z
" transform="scale(0.015625)"/>
       <path id="DejaVuSans-4e" d="M 581 4863 
L 1159 4863 
L 1159 1991 
L 2875 3500 
L 3609 3500 
L 1753 1863 
L 3688 0 
L 2938 0 
L 1159 1709 
L 1159 0 
L 581 0 
L 581 4863 
z
" transform="scale(0.015625)"/>
       <path id="DejaVuSans-3" transform="scale(0.015625)"/>
       <path id="DejaVuSans-2c" d="M 628 4666 
L 1259 4666 
L 1259 0 
L 628 0 
L 628 4666 
z
" transform="scale(0.015625)"/>
       <path id="DejaVuSans-27" d="M 1259 4147 
L 1259 519 
L 2022 519 
Q 2988 519 3436 956 
Q 3884 1394 3884 2338 
Q 3884 3275 3436 3711 
Q 2988 4147 2022 4147 
L 1259 4147 
z
M 628 4666 
L 1925 4666 
Q 3281 4666 3915 4102 
Q 4550 3538 4550 2338 
Q 4550 1131 3912 565 
Q 3275 0 1925 0 
L 628 0 
L 628 4666 
z
" transform="scale(0.015625)"/>
      </defs>
      <use xlink:href="#DejaVuSans-37"/>
      <use xlink:href="#DejaVuSans-44" transform="translate(44.53125 0)"/>
      <use xlink:href="#DejaVuSans-56" transform="translate(105.8125 0)"/>
      <use xlink:href="#DejaVuSans-4e" transform="translate(157.90625 0)"/>
      <use xlink:href="#DejaVuSans-3" transform="translate(215.8125 0)"/>
      <use xlink:href="#DejaVuSans-2c" transform="translate(247.59375 0)"/>
      <use xlink:href="#DejaVuSans-27" transform="translate(277.09375 0)"/>
     </g>
    </g>
   </g>
   <g id="matplotlib.axis_2">
    <g id="ytick_1">
     <g id="line2d_19">
      <path d="M 44.698438 313.62 
L 401.928437 313.62 
" clip-path="url(#p7650093568)" style="fill: none; stroke-dasharray: 2.22,0.96; stroke-dashoffset: 0; stroke: #b0b0b0; stroke-opacity: 0.25; stroke-width: 0.6"/>
     </g>
     <g id="line2d_20">
      <defs>
       <path id="mc3c8fd570e" d="M 0 0 
L -4 0 
" style="stroke: #000000; stroke-width: 0.8"/>
      </defs>
      <g>
       <use xlink:href="#mc3c8fd570e" x="44.698438" y="313.62" style="stroke: #000000; stroke-width: 0.8"/>
      </g>
     </g>
     <g id="text_11">
      <!-- 0 -->
      <g transform="translate(30.199688 317.798711) scale(0.11 -0.11)">
       <use xlink:href="#DejaVuSans-13"/>
      </g>
     </g>
    </g>
    <g id="ytick_2">
     <g id="line2d_21">
      <path d="M 44.698438 266.224903 
L 401.928437 266.224903 
" clip-path="url(#p7650093568)" style="fill: none; stroke-dasharray: 2.22,0.96; stroke-dashoffset: 0; stroke: #b0b0b0; stroke-opacity: 0.25; stroke-width: 0.6"/>
     </g>
     <g id="line2d_22">
      <g>
       <use xlink:href="#mc3c8fd570e" x="44.698438" y="266.224903" style="stroke: #000000; stroke-width: 0.8"/>
      </g>
     </g>
     <g id="text_12">
      <!-- 20 -->
      <g transform="translate(23.200938 270.403614) scale(0.11 -0.11)">
       <use xlink:href="#DejaVuSans-15"/>
       <use xlink:href="#DejaVuSans-13" transform="translate(63.625 0)"/>
      </g>
     </g>
    </g>
    <g id="ytick_3">
     <g id="line2d_23">
      <path d="M 44.698438 218.829806 
L 401.928437 218.829806 
" clip-path="url(#p7650093568)" style="fill: none; stroke-dasharray: 2.22,0.96; stroke-dashoffset: 0; stroke: #b0b0b0; stroke-opacity: 0.25; stroke-width: 0.6"/>
     </g>
     <g id="line2d_24">
      <g>
       <use xlink:href="#mc3c8fd570e" x="44.698438" y="218.829806" style="stroke: #000000; stroke-width: 0.8"/>
      </g>
     </g>
     <g id="text_13">
      <!-- 40 -->
      <g transform="translate(23.200938 223.008517) scale(0.11 -0.11)">
       <use xlink:href="#DejaVuSans-17"/>
       <use xlink:href="#DejaVuSans-13" transform="translate(63.625 0)"/>
      </g>
     </g>
    </g>
    <g id="ytick_4">
     <g id="line2d_25">
      <path d="M 44.698438 171.434709 
L 401.928437 171.434709 
" clip-path="url(#p7650093568)" style="fill: none; stroke-dasharray: 2.22,0.96; stroke-dashoffset: 0; stroke: #b0b0b0; stroke-opacity: 0.25; stroke-width: 0.6"/>
     </g>
     <g id="line2d_26">
      <g>
       <use xlink:href="#mc3c8fd570e" x="44.698438" y="171.434709" style="stroke: #000000; stroke-width: 0.8"/>
      </g>
     </g>
     <g id="text_14">
      <!-- 60 -->
      <g transform="translate(23.200938 175.61342) scale(0.11 -0.11)">
       <defs>
        <path id="DejaVuSans-19" d="M 2113 2584 
Q 1688 2584 1439 2293 
Q 1191 2003 1191 1497 
Q 1191 994 1439 701 
Q 1688 409 2113 409 
Q 2538 409 2786 701 
Q 3034 994 3034 1497 
Q 3034 2003 2786 2293 
Q 2538 2584 2113 2584 
z
M 3366 4563 
L 3366 3988 
Q 3128 4100 2886 4159 
Q 2644 4219 2406 4219 
Q 1781 4219 1451 3797 
Q 1122 3375 1075 2522 
Q 1259 2794 1537 2939 
Q 1816 3084 2150 3084 
Q 2853 3084 3261 2657 
Q 3669 2231 3669 1497 
Q 3669 778 3244 343 
Q 2819 -91 2113 -91 
Q 1303 -91 875 529 
Q 447 1150 447 2328 
Q 447 3434 972 4092 
Q 1497 4750 2381 4750 
Q 2619 4750 2861 4703 
Q 3103 4656 3366 4563 
z
" transform="scale(0.015625)"/>
       </defs>
       <use xlink:href="#DejaVuSans-19"/>
       <use xlink:href="#DejaVuSans-13" transform="translate(63.625 0)"/>
      </g>
     </g>
    </g>
    <g id="ytick_5">
     <g id="line2d_27">
      <path d="M 44.698438 124.039612 
L 401.928437 124.039612 
" clip-path="url(#p7650093568)" style="fill: none; stroke-dasharray: 2.22,0.96; stroke-dashoffset: 0; stroke: #b0b0b0; stroke-opacity: 0.25; stroke-width: 0.6"/>
     </g>
     <g id="line2d_28">
      <g>
       <use xlink:href="#mc3c8fd570e" x="44.698438" y="124.039612" style="stroke: #000000; stroke-width: 0.8"/>
      </g>
     </g>
     <g id="text_15">
      <!-- 80 -->
      <g transform="translate(23.200938 128.218322) scale(0.11 -0.11)">
       <defs>
        <path id="DejaVuSans-1b" d="M 2034 2216 
Q 1584 2216 1326 1975 
Q 1069 1734 1069 1313 
Q 1069 891 1326 650 
Q 1584 409 2034 409 
Q 2484 409 2743 651 
Q 3003 894 3003 1313 
Q 3003 1734 2745 1975 
Q 2488 2216 2034 2216 
z
M 1403 2484 
Q 997 2584 770 2862 
Q 544 3141 544 3541 
Q 544 4100 942 4425 
Q 1341 4750 2034 4750 
Q 2731 4750 3128 4425 
Q 3525 4100 3525 3541 
Q 3525 3141 3298 2862 
Q 3072 2584 2669 2484 
Q 3125 2378 3379 2068 
Q 3634 1759 3634 1313 
Q 3634 634 3220 271 
Q 2806 -91 2034 -91 
Q 1263 -91 848 271 
Q 434 634 434 1313 
Q 434 1759 690 2068 
Q 947 2378 1403 2484 
z
M 1172 3481 
Q 1172 3119 1398 2916 
Q 1625 2713 2034 2713 
Q 2441 2713 2670 2916 
Q 2900 3119 2900 3481 
Q 2900 3844 2670 4047 
Q 2441 4250 2034 4250 
Q 1625 4250 1398 4047 
Q 1172 3844 1172 3481 
z
" transform="scale(0.015625)"/>
       </defs>
       <use xlink:href="#DejaVuSans-1b"/>
       <use xlink:href="#DejaVuSans-13" transform="translate(63.625 0)"/>
      </g>
     </g>
    </g>
    <g id="text_16">
     <!-- Task Duration (s) -->
     <g transform="translate(16.318125 246.057227) rotate(-90) scale(0.12 -0.12)">
      <defs>
       <path id="DejaVuSans-58" d="M 544 1381 
L 544 3500 
L 1119 3500 
L 1119 1403 
Q 1119 906 1312 657 
Q 1506 409 1894 409 
Q 2359 409 2629 706 
Q 2900 1003 2900 1516 
L 2900 3500 
L 3475 3500 
L 3475 0 
L 2900 0 
L 2900 538 
Q 2691 219 2414 64 
Q 2138 -91 1772 -91 
Q 1169 -91 856 284 
Q 544 659 544 1381 
z
M 1991 3584 
L 1991 3584 
z
" transform="scale(0.015625)"/>
       <path id="DejaVuSans-55" d="M 2631 2963 
Q 2534 3019 2420 3045 
Q 2306 3072 2169 3072 
Q 1681 3072 1420 2755 
Q 1159 2438 1159 1844 
L 1159 0 
L 581 0 
L 581 3500 
L 1159 3500 
L 1159 2956 
Q 1341 3275 1631 3429 
Q 1922 3584 2338 3584 
Q 2397 3584 2469 3576 
Q 2541 3569 2628 3553 
L 2631 2963 
z
" transform="scale(0.015625)"/>
       <path id="DejaVuSans-57" d="M 1172 4494 
L 1172 3500 
L 2356 3500 
L 2356 3053 
L 1172 3053 
L 1172 1153 
Q 1172 725 1289 603 
Q 1406 481 1766 481 
L 2356 481 
L 2356 0 
L 1766 0 
Q 1100 0 847 248 
Q 594 497 594 1153 
L 594 3053 
L 172 3053 
L 172 3500 
L 594 3500 
L 594 4494 
L 1172 4494 
z
" transform="scale(0.015625)"/>
       <path id="DejaVuSans-4c" d="M 603 3500 
L 1178 3500 
L 1178 0 
L 603 0 
L 603 3500 
z
M 603 4863 
L 1178 4863 
L 1178 4134 
L 603 4134 
L 603 4863 
z
" transform="scale(0.015625)"/>
       <path id="DejaVuSans-52" d="M 1959 3097 
Q 1497 3097 1228 2736 
Q 959 2375 959 1747 
Q 959 1119 1226 758 
Q 1494 397 1959 397 
Q 2419 397 2687 759 
Q 2956 1122 2956 1747 
Q 2956 2369 2687 2733 
Q 2419 3097 1959 3097 
z
M 1959 3584 
Q 2709 3584 3137 3096 
Q 3566 2609 3566 1747 
Q 3566 888 3137 398 
Q 2709 -91 1959 -91 
Q 1206 -91 779 398 
Q 353 888 353 1747 
Q 353 2609 779 3096 
Q 1206 3584 1959 3584 
z
" transform="scale(0.015625)"/>
       <path id="DejaVuSans-51" d="M 3513 2113 
L 3513 0 
L 2938 0 
L 2938 2094 
Q 2938 2591 2744 2837 
Q 2550 3084 2163 3084 
Q 1697 3084 1428 2787 
Q 1159 2491 1159 1978 
L 1159 0 
L 581 0 
L 581 3500 
L 1159 3500 
L 1159 2956 
Q 1366 3272 1645 3428 
Q 1925 3584 2291 3584 
Q 2894 3584 3203 3211 
Q 3513 2838 3513 2113 
z
" transform="scale(0.015625)"/>
       <path id="DejaVuSans-b" d="M 1984 4856 
Q 1566 4138 1362 3434 
Q 1159 2731 1159 2009 
Q 1159 1288 1364 580 
Q 1569 -128 1984 -844 
L 1484 -844 
Q 1016 -109 783 600 
Q 550 1309 550 2009 
Q 550 2706 781 3412 
Q 1013 4119 1484 4856 
L 1984 4856 
z
" transform="scale(0.015625)"/>
       <path id="DejaVuSans-c" d="M 513 4856 
L 1013 4856 
Q 1481 4119 1714 3412 
Q 1947 2706 1947 2009 
Q 1947 1309 1714 600 
Q 1481 -109 1013 -844 
L 513 -844 
Q 928 -128 1133 580 
Q 1338 1288 1338 2009 
Q 1338 2731 1133 3434 
Q 928 4138 513 4856 
z
" transform="scale(0.015625)"/>
      </defs>
      <use xlink:href="#DejaVuSans-37"/>
      <use xlink:href="#DejaVuSans-44" transform="translate(44.53125 0)"/>
      <use xlink:href="#DejaVuSans-56" transform="translate(105.8125 0)"/>
      <use xlink:href="#DejaVuSans-4e" transform="translate(157.90625 0)"/>
      <use xlink:href="#DejaVuSans-3" transform="translate(215.8125 0)"/>
      <use xlink:href="#DejaVuSans-27" transform="translate(247.59375 0)"/>
      <use xlink:href="#DejaVuSans-58" transform="translate(324.59375 0)"/>
      <use xlink:href="#DejaVuSans-55" transform="translate(387.96875 0)"/>
      <use xlink:href="#DejaVuSans-44" transform="translate(429.078125 0)"/>
      <use xlink:href="#DejaVuSans-57" transform="translate(490.359375 0)"/>
      <use xlink:href="#DejaVuSans-4c" transform="translate(529.5625 0)"/>
      <use xlink:href="#DejaVuSans-52" transform="translate(557.34375 0)"/>
      <use xlink:href="#DejaVuSans-51" transform="translate(618.53125 0)"/>
      <use xlink:href="#DejaVuSans-3" transform="translate(681.90625 0)"/>
      <use xlink:href="#DejaVuSans-b" transform="translate(713.6875 0)"/>
      <use xlink:href="#DejaVuSans-56" transform="translate(752.703125 0)"/>
      <use xlink:href="#DejaVuSans-c" transform="translate(804.796875 0)"/>
     </g>
    </g>
   </g>
   <g id="line2d_29">
    <path d="M 44.698438 281.506771 
L 401.928437 281.506771 
" clip-path="url(#p7650093568)" style="fill: none; stroke-dasharray: 4.44,1.92; stroke-dashoffset: 0; stroke: #808080; stroke-width: 1.2"/>
   </g>
   <g id="patch_43">
    <path d="M 44.698438 313.62 
L 44.698438 77.236953 
" style="fill: none; stroke: #000000; stroke-width: 0.8; stroke-linejoin: miter; stroke-linecap: square"/>
   </g>
   <g id="patch_44">
    <path d="M 44.698438 313.62 
L 401.928437 313.62 
" style="fill: none; stroke: #000000; stroke-width: 0.8; stroke-linejoin: miter; stroke-linecap: square"/>
   </g>
   <g id="patch_45">
    <path d="M 190.320504 99.195862 
Q 207.895221 94.122199 224.610604 89.296619 
" style="fill: none; stroke: #000000; stroke-width: 0.8; stroke-linecap: round"/>
    <path d="M 220.652595 88.565753 
L 224.610604 89.296619 
L 221.651106 92.024507 
" style="fill: none; stroke: #000000; stroke-width: 0.8; stroke-linecap: round"/>
   </g>
   <g id="text_17">
    <!-- Straggler task: -->
    <g transform="translate(113.158001 102.435393) scale(0.09 -0.09)">
     <defs>
      <path id="DejaVuSans-36" d="M 3425 4513 
L 3425 3897 
Q 3066 4069 2747 4153 
Q 2428 4238 2131 4238 
Q 1616 4238 1336 4038 
Q 1056 3838 1056 3469 
Q 1056 3159 1242 3001 
Q 1428 2844 1947 2747 
L 2328 2669 
Q 3034 2534 3370 2195 
Q 3706 1856 3706 1288 
Q 3706 609 3251 259 
Q 2797 -91 1919 -91 
Q 1588 -91 1214 -16 
Q 841 59 441 206 
L 441 856 
Q 825 641 1194 531 
Q 1563 422 1919 422 
Q 2459 422 2753 634 
Q 3047 847 3047 1241 
Q 3047 1584 2836 1778 
Q 2625 1972 2144 2069 
L 1759 2144 
Q 1053 2284 737 2584 
Q 422 2884 422 3419 
Q 422 4038 858 4394 
Q 1294 4750 2059 4750 
Q 2388 4750 2728 4690 
Q 3069 4631 3425 4513 
z
" transform="scale(0.015625)"/>
      <path id="DejaVuSans-4a" d="M 2906 1791 
Q 2906 2416 2648 2759 
Q 2391 3103 1925 3103 
Q 1463 3103 1205 2759 
Q 947 2416 947 1791 
Q 947 1169 1205 825 
Q 1463 481 1925 481 
Q 2391 481 2648 825 
Q 2906 1169 2906 1791 
z
M 3481 434 
Q 3481 -459 3084 -895 
Q 2688 -1331 1869 -1331 
Q 1566 -1331 1297 -1286 
Q 1028 -1241 775 -1147 
L 775 -588 
Q 1028 -725 1275 -790 
Q 1522 -856 1778 -856 
Q 2344 -856 2625 -561 
Q 2906 -266 2906 331 
L 2906 616 
Q 2728 306 2450 153 
Q 2172 0 1784 0 
Q 1141 0 747 490 
Q 353 981 353 1791 
Q 353 2603 747 3093 
Q 1141 3584 1784 3584 
Q 2172 3584 2450 3431 
Q 2728 3278 2906 2969 
L 2906 3500 
L 3481 3500 
L 3481 434 
z
" transform="scale(0.015625)"/>
      <path id="DejaVuSans-4f" d="M 603 4863 
L 1178 4863 
L 1178 0 
L 603 0 
L 603 4863 
z
" transform="scale(0.015625)"/>
      <path id="DejaVuSans-48" d="M 3597 1894 
L 3597 1613 
L 953 1613 
Q 991 1019 1311 708 
Q 1631 397 2203 397 
Q 2534 397 2845 478 
Q 3156 559 3463 722 
L 3463 178 
Q 3153 47 2828 -22 
Q 2503 -91 2169 -91 
Q 1331 -91 842 396 
Q 353 884 353 1716 
Q 353 2575 817 3079 
Q 1281 3584 2069 3584 
Q 2775 3584 3186 3129 
Q 3597 2675 3597 1894 
z
M 3022 2063 
Q 3016 2534 2758 2815 
Q 2500 3097 2075 3097 
Q 1594 3097 1305 2825 
Q 1016 2553 972 2059 
L 3022 2063 
z
" transform="scale(0.015625)"/>
      <path id="DejaVuSans-1d" d="M 750 794 
L 1409 794 
L 1409 0 
L 750 0 
L 750 794 
z
M 750 3309 
L 1409 3309 
L 1409 2516 
L 750 2516 
L 750 3309 
z
" transform="scale(0.015625)"/>
     </defs>
     <use xlink:href="#DejaVuSans-36"/>
     <use xlink:href="#DejaVuSans-57" transform="translate(63.484375 0)"/>
     <use xlink:href="#DejaVuSans-55" transform="translate(102.6875 0)"/>
     <use xlink:href="#DejaVuSans-44" transform="translate(143.796875 0)"/>
     <use xlink:href="#DejaVuSans-4a" transform="translate(205.078125 0)"/>
     <use xlink:href="#DejaVuSans-4a" transform="translate(268.5625 0)"/>
     <use xlink:href="#DejaVuSans-4f" transform="translate(332.046875 0)"/>
     <use xlink:href="#DejaVuSans-48" transform="translate(359.828125 0)"/>
     <use xlink:href="#DejaVuSans-55" transform="translate(421.359375 0)"/>
     <use xlink:href="#DejaVuSans-3" transform="translate(462.46875 0)"/>
     <use xlink:href="#DejaVuSans-57" transform="translate(494.25 0)"/>
     <use xlink:href="#DejaVuSans-44" transform="translate(533.453125 0)"/>
     <use xlink:href="#DejaVuSans-56" transform="translate(594.734375 0)"/>
     <use xlink:href="#DejaVuSans-4e" transform="translate(646.828125 0)"/>
     <use xlink:href="#DejaVuSans-1d" transform="translate(704.734375 0)"/>
    </g>
    <!-- 95s -->
    <g transform="translate(113.158001 113.237151) scale(0.09 -0.09)">
     <defs>
      <path id="DejaVuSans-1c" d="M 703 97 
L 703 672 
Q 941 559 1184 500 
Q 1428 441 1663 441 
Q 2288 441 2617 861 
Q 2947 1281 2994 2138 
Q 2813 1869 2534 1725 
Q 2256 1581 1919 1581 
Q 1219 1581 811 2004 
Q 403 2428 403 3163 
Q 403 3881 828 4315 
Q 1253 4750 1959 4750 
Q 2769 4750 3195 4129 
Q 3622 3509 3622 2328 
Q 3622 1225 3098 567 
Q 2575 -91 1691 -91 
Q 1453 -91 1209 -44 
Q 966 3 703 97 
z
M 1959 2075 
Q 2384 2075 2632 2365 
Q 2881 2656 2881 3163 
Q 2881 3666 2632 3958 
Q 2384 4250 1959 4250 
Q 1534 4250 1286 3958 
Q 1038 3666 1038 3163 
Q 1038 2656 1286 2365 
Q 1534 2075 1959 2075 
z
" transform="scale(0.015625)"/>
     </defs>
     <use xlink:href="#DejaVuSans-1c"/>
     <use xlink:href="#DejaVuSans-18" transform="translate(63.625 0)"/>
     <use xlink:href="#DejaVuSans-56" transform="translate(127.25 0)"/>
    </g>
    <!-- (~8x neighbors) -->
    <g transform="translate(113.158001 124.039612) scale(0.09 -0.09)">
     <defs>
      <path id="DejaVuSans-61" d="M 4684 2553 
L 4684 1997 
Q 4356 1750 4076 1644 
Q 3797 1538 3494 1538 
Q 3150 1538 2694 1722 
Q 2659 1734 2644 1741 
Q 2622 1750 2575 1766 
Q 2091 1959 1797 1959 
Q 1522 1959 1253 1839 
Q 984 1719 678 1459 
L 678 2016 
Q 1006 2263 1286 2370 
Q 1566 2478 1869 2478 
Q 2213 2478 2672 2291 
Q 2703 2278 2719 2272 
Q 2744 2263 2788 2247 
Q 3272 2053 3566 2053 
Q 3834 2053 4098 2172 
Q 4363 2291 4684 2553 
z
" transform="scale(0.015625)"/>
      <path id="DejaVuSans-5b" d="M 3513 3500 
L 2247 1797 
L 3578 0 
L 2900 0 
L 1881 1375 
L 863 0 
L 184 0 
L 1544 1831 
L 300 3500 
L 978 3500 
L 1906 2253 
L 2834 3500 
L 3513 3500 
z
" transform="scale(0.015625)"/>
      <path id="DejaVuSans-4b" d="M 3513 2113 
L 3513 0 
L 2938 0 
L 2938 2094 
Q 2938 2591 2744 2837 
Q 2550 3084 2163 3084 
Q 1697 3084 1428 2787 
Q 1159 2491 1159 1978 
L 1159 0 
L 581 0 
L 581 4863 
L 1159 4863 
L 1159 2956 
Q 1366 3272 1645 3428 
Q 1925 3584 2291 3584 
Q 2894 3584 3203 3211 
Q 3513 2838 3513 2113 
z
" transform="scale(0.015625)"/>
      <path id="DejaVuSans-45" d="M 3116 1747 
Q 3116 2381 2855 2742 
Q 2594 3103 2138 3103 
Q 1681 3103 1420 2742 
Q 1159 2381 1159 1747 
Q 1159 1113 1420 752 
Q 1681 391 2138 391 
Q 2594 391 2855 752 
Q 3116 1113 3116 1747 
z
M 1159 2969 
Q 1341 3281 1617 3432 
Q 1894 3584 2278 3584 
Q 2916 3584 3314 3078 
Q 3713 2572 3713 1747 
Q 3713 922 3314 415 
Q 2916 -91 2278 -91 
Q 1894 -91 1617 61 
Q 1341 213 1159 525 
L 1159 0 
L 581 0 
L 581 4863 
L 1159 4863 
L 1159 2969 
z
" transform="scale(0.015625)"/>
     </defs>
     <use xlink:href="#DejaVuSans-b"/>
     <use xlink:href="#DejaVuSans-61" transform="translate(39.015625 0)"/>
     <use xlink:href="#DejaVuSans-1b" transform="translate(122.8125 0)"/>
     <use xlink:href="#DejaVuSans-5b" transform="translate(186.4375 0)"/>
     <use xlink:href="#DejaVuSans-3" transform="translate(245.625 0)"/>
     <use xlink:href="#DejaVuSans-51" transform="translate(277.40625 0)"/>
     <use xlink:href="#DejaVuSans-48" transform="translate(340.78125 0)"/>
     <use xlink:href="#DejaVuSans-4c" transform="translate(402.3125 0)"/>
     <use xlink:href="#DejaVuSans-4a" transform="translate(430.09375 0)"/>
     <use xlink:href="#DejaVuSans-4b" transform="translate(493.578125 0)"/>
     <use xlink:href="#DejaVuSans-45" transform="translate(556.953125 0)"/>
     <use xlink:href="#DejaVuSans-52" transform="translate(620.4375 0)"/>
     <use xlink:href="#DejaVuSans-55" transform="translate(681.625 0)"/>
     <use xlink:href="#DejaVuSans-56" transform="translate(722.734375 0)"/>
     <use xlink:href="#DejaVuSans-c" transform="translate(774.828125 0)"/>
    </g>
   </g>
   <g id="text_18">
    <!-- Skewed Key (no salting) -->
    <g transform="translate(145.287031 67.236953) scale(0.13 -0.13)">
     <defs>
      <path id="DejaVuSans-5a" d="M 269 3500 
L 844 3500 
L 1563 769 
L 2278 3500 
L 2956 3500 
L 3675 769 
L 4391 3500 
L 4966 3500 
L 4050 0 
L 3372 0 
L 2619 2869 
L 1863 0 
L 1184 0 
L 269 3500 
z
" transform="scale(0.015625)"/>
      <path id="DejaVuSans-47" d="M 2906 2969 
L 2906 4863 
L 3481 4863 
L 3481 0 
L 2906 0 
L 2906 525 
Q 2725 213 2448 61 
Q 2172 -91 1784 -91 
Q 1150 -91 751 415 
Q 353 922 353 1747 
Q 353 2572 751 3078 
Q 1150 3584 1784 3584 
Q 2172 3584 2448 3432 
Q 2725 3281 2906 2969 
z
M 947 1747 
Q 947 1113 1208 752 
Q 1469 391 1925 391 
Q 2381 391 2643 752 
Q 2906 1113 2906 1747 
Q 2906 2381 2643 2742 
Q 2381 3103 1925 3103 
Q 1469 3103 1208 2742 
Q 947 2381 947 1747 
z
" transform="scale(0.015625)"/>
      <path id="DejaVuSans-2e" d="M 628 4666 
L 1259 4666 
L 1259 2694 
L 3353 4666 
L 4166 4666 
L 1850 2491 
L 4331 0 
L 3500 0 
L 1259 2247 
L 1259 0 
L 628 0 
L 628 4666 
z
" transform="scale(0.015625)"/>
      <path id="DejaVuSans-5c" d="M 2059 -325 
Q 1816 -950 1584 -1140 
Q 1353 -1331 966 -1331 
L 506 -1331 
L 506 -850 
L 844 -850 
Q 1081 -850 1212 -737 
Q 1344 -625 1503 -206 
L 1606 56 
L 191 3500 
L 800 3500 
L 1894 763 
L 2988 3500 
L 3597 3500 
L 2059 -325 
z
" transform="scale(0.015625)"/>
     </defs>
     <use xlink:href="#DejaVuSans-36"/>
     <use xlink:href="#DejaVuSans-4e" transform="translate(63.484375 0)"/>
     <use xlink:href="#DejaVuSans-48" transform="translate(117.828125 0)"/>
     <use xlink:href="#DejaVuSans-5a" transform="translate(179.359375 0)"/>
     <use xlink:href="#DejaVuSans-48" transform="translate(261.140625 0)"/>
     <use xlink:href="#DejaVuSans-47" transform="translate(322.671875 0)"/>
     <use xlink:href="#DejaVuSans-3" transform="translate(386.15625 0)"/>
     <use xlink:href="#DejaVuSans-2e" transform="translate(417.9375 0)"/>
     <use xlink:href="#DejaVuSans-48" transform="translate(478.53125 0)"/>
     <use xlink:href="#DejaVuSans-5c" transform="translate(540.0625 0)"/>
     <use xlink:href="#DejaVuSans-3" transform="translate(599.25 0)"/>
     <use xlink:href="#DejaVuSans-b" transform="translate(631.03125 0)"/>
     <use xlink:href="#DejaVuSans-51" transform="translate(670.046875 0)"/>
     <use xlink:href="#DejaVuSans-52" transform="translate(733.421875 0)"/>
     <use xlink:href="#DejaVuSans-3" transform="translate(794.609375 0)"/>
     <use xlink:href="#DejaVuSans-56" transform="translate(826.390625 0)"/>
     <use xlink:href="#DejaVuSans-44" transform="translate(878.484375 0)"/>
     <use xlink:href="#DejaVuSans-4f" transform="translate(939.765625 0)"/>
     <use xlink:href="#DejaVuSans-57" transform="translate(967.546875 0)"/>
     <use xlink:href="#DejaVuSans-4c" transform="translate(1006.75 0)"/>
     <use xlink:href="#DejaVuSans-51" transform="translate(1034.53125 0)"/>
     <use xlink:href="#DejaVuSans-4a" transform="translate(1097.90625 0)"/>
     <use xlink:href="#DejaVuSans-c" transform="translate(1161.390625 0)"/>
    </g>
   </g>
   <g id="legend_1">
    <g id="patch_46">
     <path d="M 311.686562 97.937656 
L 395.628437 97.937656 
Q 397.428437 97.937656 397.428437 96.137656 
L 397.428437 83.536953 
Q 397.428437 81.736953 395.628437 81.736953 
L 311.686562 81.736953 
Q 309.886562 81.736953 309.886562 83.536953 
L 309.886562 96.137656 
Q 309.886562 97.937656 311.686562 97.937656 
z
" style="fill: #ffffff; opacity: 0.85; stroke: #cccccc; stroke-linejoin: miter"/>
    </g>
    <g id="line2d_30">
     <path d="M 313.486562 89.025547 
L 322.486562 89.025547 
L 331.486562 89.025547 
" style="fill: none; stroke-dasharray: 4.44,1.92; stroke-dashoffset: 0; stroke: #808080; stroke-width: 1.2"/>
    </g>
    <g id="text_19">
     <!-- Mean: 13.6s -->
     <g transform="translate(338.686562 92.175547) scale(0.09 -0.09)">
      <defs>
       <path id="DejaVuSans-30" d="M 628 4666 
L 1569 4666 
L 2759 1491 
L 3956 4666 
L 4897 4666 
L 4897 0 
L 4281 0 
L 4281 4097 
L 3078 897 
L 2444 897 
L 1241 4097 
L 1241 0 
L 628 0 
L 628 4666 
z
" transform="scale(0.015625)"/>
       <path id="DejaVuSans-11" d="M 684 794 
L 1344 794 
L 1344 0 
L 684 0 
L 684 794 
z
" transform="scale(0.015625)"/>
      </defs>
      <use xlink:href="#DejaVuSans-30"/>
      <use xlink:href="#DejaVuSans-48" transform="translate(86.28125 0)"/>
      <use xlink:href="#DejaVuSans-44" transform="translate(147.8125 0)"/>
      <use xlink:href="#DejaVuSans-51" transform="translate(209.09375 0)"/>
      <use xlink:href="#DejaVuSans-1d" transform="translate(272.46875 0)"/>
      <use xlink:href="#DejaVuSans-3" transform="translate(306.15625 0)"/>
      <use xlink:href="#DejaVuSans-14" transform="translate(337.9375 0)"/>
      <use xlink:href="#DejaVuSans-16" transform="translate(401.5625 0)"/>
      <use xlink:href="#DejaVuSans-11" transform="translate(465.1875 0)"/>
      <use xlink:href="#DejaVuSans-19" transform="translate(496.96875 0)"/>
      <use xlink:href="#DejaVuSans-56" transform="translate(560.59375 0)"/>
     </g>
    </g>
   </g>
  </g>
  <g id="axes_2">
   <g id="patch_47">
    <path d="M 417.808438 313.62 
L 775.038437 313.62 
L 775.038437 77.236953 
L 417.808438 77.236953 
z
" style="fill: #ffffff"/>
   </g>
   <g id="patch_48">
    <path d="M 434.046165 313.62 
L 440.573894 313.62 
L 440.573894 285.178569 
L 434.046165 285.178569 
z
" clip-path="url(#p3a029f097d)" style="fill: #0072b2"/>
   </g>
   <g id="patch_49">
    <path d="M 442.205827 313.62 
L 448.733556 313.62 
L 448.733556 284.121011 
L 442.205827 284.121011 
z
" clip-path="url(#p3a029f097d)" style="fill: #0072b2"/>
   </g>
   <g id="patch_50">
    <path d="M 450.365489 313.62 
L 456.893218 313.62 
L 456.893218 286.157401 
L 450.365489 286.157401 
z
" clip-path="url(#p3a029f097d)" style="fill: #0072b2"/>
   </g>
   <g id="patch_51">
    <path d="M 458.525151 313.62 
L 465.05288 313.62 
L 465.05288 288.348668 
L 458.525151 288.348668 
z
" clip-path="url(#p3a029f097d)" style="fill: #0072b2"/>
   </g>
   <g id="patch_52">
    <path d="M 466.684813 313.62 
L 473.212542 313.62 
L 473.212542 286.799129 
L 466.684813 286.799129 
z
" clip-path="url(#p3a029f097d)" style="fill: #0072b2"/>
   </g>
   <g id="patch_53">
    <path d="M 474.844475 313.62 
L 481.372204 313.62 
L 481.372204 288.707881 
L 474.844475 288.707881 
z
" clip-path="url(#p3a029f097d)" style="fill: #0072b2"/>
   </g>
   <g id="patch_54">
    <path d="M 483.004136 313.62 
L 489.531866 313.62 
L 489.531866 259.56461 
L 483.004136 259.56461 
z
" clip-path="url(#p3a029f097d)" style="fill: #0072b2"/>
   </g>
   <g id="patch_55">
    <path d="M 491.163798 313.62 
L 497.691528 313.62 
L 497.691528 280.418969 
L 491.163798 280.418969 
z
" clip-path="url(#p3a029f097d)" style="fill: #0072b2"/>
   </g>
   <g id="patch_56">
    <path d="M 499.32346 313.62 
L 505.85119 313.62 
L 505.85119 286.932555 
L 499.32346 286.932555 
z
" clip-path="url(#p3a029f097d)" style="fill: #0072b2"/>
   </g>
   <g id="patch_57">
    <path d="M 507.483122 313.62 
L 514.010852 313.62 
L 514.010852 287.388502 
L 507.483122 287.388502 
z
" clip-path="url(#p3a029f097d)" style="fill: #0072b2"/>
   </g>
   <g id="patch_58">
    <path d="M 515.642784 313.62 
L 522.170514 313.62 
L 522.170514 283.441733 
L 515.642784 283.441733 
z
" clip-path="url(#p3a029f097d)" style="fill: #0072b2"/>
   </g>
   <g id="patch_59">
    <path d="M 523.802446 313.62 
L 530.330176 313.62 
L 530.330176 283.91434 
L 523.802446 283.91434 
z
" clip-path="url(#p3a029f097d)" style="fill: #0072b2"/>
   </g>
   <g id="patch_60">
    <path d="M 531.962108 313.62 
L 538.489838 313.62 
L 538.489838 284.808233 
L 531.962108 284.808233 
z
" clip-path="url(#p3a029f097d)" style="fill: #0072b2"/>
   </g>
   <g id="patch_61">
    <path d="M 540.12177 313.62 
L 546.6495 313.62 
L 546.6495 288.490413 
L 540.12177 288.490413 
z
" clip-path="url(#p3a029f097d)" style="fill: #0072b2"/>
   </g>
   <g id="patch_62">
    <path d="M 548.281432 313.62 
L 554.809162 313.62 
L 554.809162 285.286921 
L 548.281432 285.286921 
z
" clip-path="url(#p3a029f097d)" style="fill: #0072b2"/>
   </g>
   <g id="patch_63">
    <path d="M 556.441094 313.62 
L 562.968824 313.62 
L 562.968824 282.711395 
L 556.441094 282.711395 
z
" clip-path="url(#p3a029f097d)" style="fill: #0072b2"/>
   </g>
   <g id="patch_64">
    <path d="M 564.600756 313.62 
L 571.128485 313.62 
L 571.128485 289.96113 
L 564.600756 289.96113 
z
" clip-path="url(#p3a029f097d)" style="fill: #0072b2"/>
   </g>
   <g id="patch_65">
    <path d="M 572.760418 313.62 
L 579.288147 313.62 
L 579.288147 286.809597 
L 572.760418 286.809597 
z
" clip-path="url(#p3a029f097d)" style="fill: #0072b2"/>
   </g>
   <g id="patch_66">
    <path d="M 580.92008 313.62 
L 587.447809 313.62 
L 587.447809 266.536546 
L 580.92008 266.536546 
z
" clip-path="url(#p3a029f097d)" style="fill: #0072b2"/>
   </g>
   <g id="patch_67">
    <path d="M 589.079742 313.62 
L 595.607471 313.62 
L 595.607471 289.766774 
L 589.079742 289.766774 
z
" clip-path="url(#p3a029f097d)" style="fill: #0072b2"/>
   </g>
   <g id="patch_68">
    <path d="M 597.239404 313.62 
L 603.767133 313.62 
L 603.767133 291.729633 
L 597.239404 291.729633 
z
" clip-path="url(#p3a029f097d)" style="fill: #0072b2"/>
   </g>
   <g id="patch_69">
    <path d="M 605.399066 313.62 
L 611.926795 313.62 
L 611.926795 286.018604 
L 605.399066 286.018604 
z
" clip-path="url(#p3a029f097d)" style="fill: #0072b2"/>
   </g>
   <g id="patch_70">
    <path d="M 613.558728 313.62 
L 620.086457 313.62 
L 620.086457 289.688248 
L 613.558728 289.688248 
z
" clip-path="url(#p3a029f097d)" style="fill: #0072b2"/>
   </g>
   <g id="patch_71">
    <path d="M 621.71839 313.62 
L 628.246119 313.62 
L 628.246119 284.218697 
L 621.71839 284.218697 
z
" clip-path="url(#p3a029f097d)" style="fill: #0072b2"/>
   </g>
   <g id="patch_72">
    <path d="M 629.878051 313.62 
L 636.405781 313.62 
L 636.405781 284.625749 
L 629.878051 284.625749 
z
" clip-path="url(#p3a029f097d)" style="fill: #0072b2"/>
   </g>
   <g id="patch_73">
    <path d="M 638.037713 313.62 
L 644.565443 313.62 
L 644.565443 260.44287 
L 638.037713 260.44287 
z
" clip-path="url(#p3a029f097d)" style="fill: #0072b2"/>
   </g>
   <g id="patch_74">
    <path d="M 646.197375 313.62 
L 652.725105 313.62 
L 652.725105 294.129097 
L 646.197375 294.129097 
z
" clip-path="url(#p3a029f097d)" style="fill: #0072b2"/>
   </g>
   <g id="patch_75">
    <path d="M 654.357037 313.62 
L 660.884767 313.62 
L 660.884767 261.693254 
L 654.357037 261.693254 
z
" clip-path="url(#p3a029f097d)" style="fill: #0072b2"/>
   </g>
   <g id="patch_76">
    <path d="M 662.516699 313.62 
L 669.044429 313.62 
L 669.044429 285.355345 
L 662.516699 285.355345 
z
" clip-path="url(#p3a029f097d)" style="fill: #0072b2"/>
   </g>
   <g id="patch_77">
    <path d="M 670.676361 313.62 
L 677.204091 313.62 
L 677.204091 259.375627 
L 670.676361 259.375627 
z
" clip-path="url(#p3a029f097d)" style="fill: #0072b2"/>
   </g>
   <g id="patch_78">
    <path d="M 678.836023 313.62 
L 685.363753 313.62 
L 685.363753 290.622012 
L 678.836023 290.622012 
z
" clip-path="url(#p3a029f097d)" style="fill: #0072b2"/>
   </g>
   <g id="patch_79">
    <path d="M 686.995685 313.62 
L 693.523415 313.62 
L 693.523415 261.476636 
L 686.995685 261.476636 
z
" clip-path="url(#p3a029f097d)" style="fill: #0072b2"/>
   </g>
   <g id="patch_80">
    <path d="M 695.155347 313.62 
L 701.683077 313.62 
L 701.683077 263.256674 
L 695.155347 263.256674 
z
" clip-path="url(#p3a029f097d)" style="fill: #0072b2"/>
   </g>
   <g id="patch_81">
    <path d="M 703.315009 313.62 
L 709.842739 313.62 
L 709.842739 288.058061 
L 703.315009 288.058061 
z
" clip-path="url(#p3a029f097d)" style="fill: #0072b2"/>
   </g>
   <g id="patch_82">
    <path d="M 711.474671 313.62 
L 718.0024 313.62 
L 718.0024 256.007294 
L 711.474671 256.007294 
z
" clip-path="url(#p3a029f097d)" style="fill: #0072b2"/>
   </g>
   <g id="patch_83">
    <path d="M 719.634333 313.62 
L 726.162062 313.62 
L 726.162062 288.053431 
L 719.634333 288.053431 
z
" clip-path="url(#p3a029f097d)" style="fill: #0072b2"/>
   </g>
   <g id="patch_84">
    <path d="M 727.793995 313.62 
L 734.321724 313.62 
L 734.321724 285.298544 
L 727.793995 285.298544 
z
" clip-path="url(#p3a029f097d)" style="fill: #0072b2"/>
   </g>
   <g id="patch_85">
    <path d="M 735.953657 313.62 
L 742.481386 313.62 
L 742.481386 282.039261 
L 735.953657 282.039261 
z
" clip-path="url(#p3a029f097d)" style="fill: #0072b2"/>
   </g>
   <g id="patch_86">
    <path d="M 744.113319 313.62 
L 750.641048 313.62 
L 750.641048 287.257427 
L 744.113319 287.257427 
z
" clip-path="url(#p3a029f097d)" style="fill: #0072b2"/>
   </g>
   <g id="patch_87">
    <path d="M 752.272981 313.62 
L 758.80071 313.62 
L 758.80071 285.580001 
L 752.272981 285.580001 
z
" clip-path="url(#p3a029f097d)" style="fill: #0072b2"/>
   </g>
   <g id="matplotlib.axis_3">
    <g id="xtick_10">
     <g id="line2d_31">
      <path d="M 437.31003 313.62 
L 437.31003 77.236953 
" clip-path="url(#p3a029f097d)" style="fill: none; stroke-dasharray: 2.22,0.96; stroke-dashoffset: 0; stroke: #b0b0b0; stroke-opacity: 0.25; stroke-width: 0.6"/>
     </g>
     <g id="line2d_32">
      <g>
       <use xlink:href="#m408c4f9fcc" x="437.31003" y="313.62" style="stroke: #000000; stroke-width: 0.8"/>
      </g>
     </g>
     <g id="text_20">
      <!-- 0 -->
      <g transform="translate(433.810655 329.477422) scale(0.11 -0.11)">
       <use xlink:href="#DejaVuSans-13"/>
      </g>
     </g>
    </g>
    <g id="xtick_11">
     <g id="line2d_33">
      <path d="M 478.108339 313.62 
L 478.108339 77.236953 
" clip-path="url(#p3a029f097d)" style="fill: none; stroke-dasharray: 2.22,0.96; stroke-dashoffset: 0; stroke: #b0b0b0; stroke-opacity: 0.25; stroke-width: 0.6"/>
     </g>
     <g id="line2d_34">
      <g>
       <use xlink:href="#m408c4f9fcc" x="478.108339" y="313.62" style="stroke: #000000; stroke-width: 0.8"/>
      </g>
     </g>
     <g id="text_21">
      <!-- 5 -->
      <g transform="translate(474.608964 329.477422) scale(0.11 -0.11)">
       <use xlink:href="#DejaVuSans-18"/>
      </g>
     </g>
    </g>
    <g id="xtick_12">
     <g id="line2d_35">
      <path d="M 518.906649 313.62 
L 518.906649 77.236953 
" clip-path="url(#p3a029f097d)" style="fill: none; stroke-dasharray: 2.22,0.96; stroke-dashoffset: 0; stroke: #b0b0b0; stroke-opacity: 0.25; stroke-width: 0.6"/>
     </g>
     <g id="line2d_36">
      <g>
       <use xlink:href="#m408c4f9fcc" x="518.906649" y="313.62" style="stroke: #000000; stroke-width: 0.8"/>
      </g>
     </g>
     <g id="text_22">
      <!-- 10 -->
      <g transform="translate(511.907899 329.477422) scale(0.11 -0.11)">
       <use xlink:href="#DejaVuSans-14"/>
       <use xlink:href="#DejaVuSans-13" transform="translate(63.625 0)"/>
      </g>
     </g>
    </g>
    <g id="xtick_13">
     <g id="line2d_37">
      <path d="M 559.704959 313.62 
L 559.704959 77.236953 
" clip-path="url(#p3a029f097d)" style="fill: none; stroke-dasharray: 2.22,0.96; stroke-dashoffset: 0; stroke: #b0b0b0; stroke-opacity: 0.25; stroke-width: 0.6"/>
     </g>
     <g id="line2d_38">
      <g>
       <use xlink:href="#m408c4f9fcc" x="559.704959" y="313.62" style="stroke: #000000; stroke-width: 0.8"/>
      </g>
     </g>
     <g id="text_23">
      <!-- 15 -->
      <g transform="translate(552.706209 329.477422) scale(0.11 -0.11)">
       <use xlink:href="#DejaVuSans-14"/>
       <use xlink:href="#DejaVuSans-18" transform="translate(63.625 0)"/>
      </g>
     </g>
    </g>
    <g id="xtick_14">
     <g id="line2d_39">
      <path d="M 600.503268 313.62 
L 600.503268 77.236953 
" clip-path="url(#p3a029f097d)" style="fill: none; stroke-dasharray: 2.22,0.96; stroke-dashoffset: 0; stroke: #b0b0b0; stroke-opacity: 0.25; stroke-width: 0.6"/>
     </g>
     <g id="line2d_40">
      <g>
       <use xlink:href="#m408c4f9fcc" x="600.503268" y="313.62" style="stroke: #000000; stroke-width: 0.8"/>
      </g>
     </g>
     <g id="text_24">
      <!-- 20 -->
      <g transform="translate(593.504518 329.477422) scale(0.11 -0.11)">
       <use xlink:href="#DejaVuSans-15"/>
       <use xlink:href="#DejaVuSans-13" transform="translate(63.625 0)"/>
      </g>
     </g>
    </g>
    <g id="xtick_15">
     <g id="line2d_41">
      <path d="M 641.301578 313.62 
L 641.301578 77.236953 
" clip-path="url(#p3a029f097d)" style="fill: none; stroke-dasharray: 2.22,0.96; stroke-dashoffset: 0; stroke: #b0b0b0; stroke-opacity: 0.25; stroke-width: 0.6"/>
     </g>
     <g id="line2d_42">
      <g>
       <use xlink:href="#m408c4f9fcc" x="641.301578" y="313.62" style="stroke: #000000; stroke-width: 0.8"/>
      </g>
     </g>
     <g id="text_25">
      <!-- 25 -->
      <g transform="translate(634.302828 329.477422) scale(0.11 -0.11)">
       <use xlink:href="#DejaVuSans-15"/>
       <use xlink:href="#DejaVuSans-18" transform="translate(63.625 0)"/>
      </g>
     </g>
    </g>
    <g id="xtick_16">
     <g id="line2d_43">
      <path d="M 682.099888 313.62 
L 682.099888 77.236953 
" clip-path="url(#p3a029f097d)" style="fill: none; stroke-dasharray: 2.22,0.96; stroke-dashoffset: 0; stroke: #b0b0b0; stroke-opacity: 0.25; stroke-width: 0.6"/>
     </g>
     <g id="line2d_44">
      <g>
       <use xlink:href="#m408c4f9fcc" x="682.099888" y="313.62" style="stroke: #000000; stroke-width: 0.8"/>
      </g>
     </g>
     <g id="text_26">
      <!-- 30 -->
      <g transform="translate(675.101138 329.477422) scale(0.11 -0.11)">
       <use xlink:href="#DejaVuSans-16"/>
       <use xlink:href="#DejaVuSans-13" transform="translate(63.625 0)"/>
      </g>
     </g>
    </g>
    <g id="xtick_17">
     <g id="line2d_45">
      <path d="M 722.898198 313.62 
L 722.898198 77.236953 
" clip-path="url(#p3a029f097d)" style="fill: none; stroke-dasharray: 2.22,0.96; stroke-dashoffset: 0; stroke: #b0b0b0; stroke-opacity: 0.25; stroke-width: 0.6"/>
     </g>
     <g id="line2d_46">
      <g>
       <use xlink:href="#m408c4f9fcc" x="722.898198" y="313.62" style="stroke: #000000; stroke-width: 0.8"/>
      </g>
     </g>
     <g id="text_27">
      <!-- 35 -->
      <g transform="translate(715.899448 329.477422) scale(0.11 -0.11)">
       <use xlink:href="#DejaVuSans-16"/>
       <use xlink:href="#DejaVuSans-18" transform="translate(63.625 0)"/>
      </g>
     </g>
    </g>
    <g id="xtick_18">
     <g id="line2d_47">
      <path d="M 763.696507 313.62 
L 763.696507 77.236953 
" clip-path="url(#p3a029f097d)" style="fill: none; stroke-dasharray: 2.22,0.96; stroke-dashoffset: 0; stroke: #b0b0b0; stroke-opacity: 0.25; stroke-width: 0.6"/>
     </g>
     <g id="line2d_48">
      <g>
       <use xlink:href="#m408c4f9fcc" x="763.696507" y="313.62" style="stroke: #000000; stroke-width: 0.8"/>
      </g>
     </g>
     <g id="text_28">
      <!-- 40 -->
      <g transform="translate(756.697757 329.477422) scale(0.11 -0.11)">
       <use xlink:href="#DejaVuSans-17"/>
       <use xlink:href="#DejaVuSans-13" transform="translate(63.625 0)"/>
      </g>
     </g>
    </g>
    <g id="text_29">
     <!-- Task ID -->
     <g transform="translate(575.177812 345.238125) scale(0.12 -0.12)">
      <use xlink:href="#DejaVuSans-37"/>
      <use xlink:href="#DejaVuSans-44" transform="translate(44.53125 0)"/>
      <use xlink:href="#DejaVuSans-56" transform="translate(105.8125 0)"/>
      <use xlink:href="#DejaVuSans-4e" transform="translate(157.90625 0)"/>
      <use xlink:href="#DejaVuSans-3" transform="translate(215.8125 0)"/>
      <use xlink:href="#DejaVuSans-2c" transform="translate(247.59375 0)"/>
      <use xlink:href="#DejaVuSans-27" transform="translate(277.09375 0)"/>
     </g>
    </g>
   </g>
   <g id="matplotlib.axis_4">
    <g id="ytick_6">
     <g id="line2d_49">
      <path d="M 417.808438 313.62 
L 775.038437 313.62 
" clip-path="url(#p3a029f097d)" style="fill: none; stroke-dasharray: 2.22,0.96; stroke-dashoffset: 0; stroke: #b0b0b0; stroke-opacity: 0.25; stroke-width: 0.6"/>
     </g>
     <g id="line2d_50">
      <g>
       <use xlink:href="#mc3c8fd570e" x="417.808438" y="313.62" style="stroke: #000000; stroke-width: 0.8"/>
      </g>
     </g>
    </g>
    <g id="ytick_7">
     <g id="line2d_51">
      <path d="M 417.808438 266.224903 
L 775.038437 266.224903 
" clip-path="url(#p3a029f097d)" style="fill: none; stroke-dasharray: 2.22,0.96; stroke-dashoffset: 0; stroke: #b0b0b0; stroke-opacity: 0.25; stroke-width: 0.6"/>
     </g>
     <g id="line2d_52">
      <g>
       <use xlink:href="#mc3c8fd570e" x="417.808438" y="266.224903" style="stroke: #000000; stroke-width: 0.8"/>
      </g>
     </g>
    </g>
    <g id="ytick_8">
     <g id="line2d_53">
      <path d="M 417.808438 218.829806 
L 775.038437 218.829806 
" clip-path="url(#p3a029f097d)" style="fill: none; stroke-dasharray: 2.22,0.96; stroke-dashoffset: 0; stroke: #b0b0b0; stroke-opacity: 0.25; stroke-width: 0.6"/>
     </g>
     <g id="line2d_54">
      <g>
       <use xlink:href="#mc3c8fd570e" x="417.808438" y="218.829806" style="stroke: #000000; stroke-width: 0.8"/>
      </g>
     </g>
    </g>
    <g id="ytick_9">
     <g id="line2d_55">
      <path d="M 417.808438 171.434709 
L 775.038437 171.434709 
" clip-path="url(#p3a029f097d)" style="fill: none; stroke-dasharray: 2.22,0.96; stroke-dashoffset: 0; stroke: #b0b0b0; stroke-opacity: 0.25; stroke-width: 0.6"/>
     </g>
     <g id="line2d_56">
      <g>
       <use xlink:href="#mc3c8fd570e" x="417.808438" y="171.434709" style="stroke: #000000; stroke-width: 0.8"/>
      </g>
     </g>
    </g>
    <g id="ytick_10">
     <g id="line2d_57">
      <path d="M 417.808438 124.039612 
L 775.038437 124.039612 
" clip-path="url(#p3a029f097d)" style="fill: none; stroke-dasharray: 2.22,0.96; stroke-dashoffset: 0; stroke: #b0b0b0; stroke-opacity: 0.25; stroke-width: 0.6"/>
     </g>
     <g id="line2d_58">
      <g>
       <use xlink:href="#mc3c8fd570e" x="417.808438" y="124.039612" style="stroke: #000000; stroke-width: 0.8"/>
      </g>
     </g>
    </g>
   </g>
   <g id="line2d_59">
    <path d="M 417.808438 281.506771 
L 775.038437 281.506771 
" clip-path="url(#p3a029f097d)" style="fill: none; stroke-dasharray: 4.44,1.92; stroke-dashoffset: 0; stroke: #808080; stroke-width: 1.2"/>
   </g>
   <g id="patch_88">
    <path d="M 417.808438 313.62 
L 417.808438 77.236953 
" style="fill: none; stroke: #000000; stroke-width: 0.8; stroke-linejoin: miter; stroke-linecap: square"/>
   </g>
   <g id="patch_89">
    <path d="M 417.808438 313.62 
L 775.038437 313.62 
" style="fill: none; stroke: #000000; stroke-width: 0.8; stroke-linejoin: miter; stroke-linecap: square"/>
   </g>
   <g id="text_30">
    <!-- Salted Key (8 buckets) -->
    <g transform="translate(523.357344 67.236953) scale(0.13 -0.13)">
     <defs>
      <path id="DejaVuSans-46" d="M 3122 3366 
L 3122 2828 
Q 2878 2963 2633 3030 
Q 2388 3097 2138 3097 
Q 1578 3097 1268 2742 
Q 959 2388 959 1747 
Q 959 1106 1268 751 
Q 1578 397 2138 397 
Q 2388 397 2633 464 
Q 2878 531 3122 666 
L 3122 134 
Q 2881 22 2623 -34 
Q 2366 -91 2075 -91 
Q 1284 -91 818 406 
Q 353 903 353 1747 
Q 353 2603 823 3093 
Q 1294 3584 2113 3584 
Q 2378 3584 2631 3529 
Q 2884 3475 3122 3366 
z
" transform="scale(0.015625)"/>
     </defs>
     <use xlink:href="#DejaVuSans-36"/>
     <use xlink:href="#DejaVuSans-44" transform="translate(63.484375 0)"/>
     <use xlink:href="#DejaVuSans-4f" transform="translate(124.765625 0)"/>
     <use xlink:href="#DejaVuSans-57" transform="translate(152.546875 0)"/>
     <use xlink:href="#DejaVuSans-48" transform="translate(191.75 0)"/>
     <use xlink:href="#DejaVuSans-47" transform="translate(253.28125 0)"/>
     <use xlink:href="#DejaVuSans-3" transform="translate(316.765625 0)"/>
     <use xlink:href="#DejaVuSans-2e" transform="translate(348.546875 0)"/>
     <use xlink:href="#DejaVuSans-48" transform="translate(409.140625 0)"/>
     <use xlink:href="#DejaVuSans-5c" transform="translate(470.671875 0)"/>
     <use xlink:href="#DejaVuSans-3" transform="translate(529.859375 0)"/>
     <use xlink:href="#DejaVuSans-b" transform="translate(561.640625 0)"/>
     <use xlink:href="#DejaVuSans-1b" transform="translate(600.65625 0)"/>
     <use xlink:href="#DejaVuSans-3" transform="translate(664.28125 0)"/>
     <use xlink:href="#DejaVuSans-45" transform="translate(696.0625 0)"/>
     <use xlink:href="#DejaVuSans-58" transform="translate(759.546875 0)"/>
     <use xlink:href="#DejaVuSans-46" transform="translate(822.921875 0)"/>
     <use xlink:href="#DejaVuSans-4e" transform="translate(877.90625 0)"/>
     <use xlink:href="#DejaVuSans-48" transform="translate(932.25 0)"/>
     <use xlink:href="#DejaVuSans-57" transform="translate(993.78125 0)"/>
     <use xlink:href="#DejaVuSans-56" transform="translate(1032.984375 0)"/>
     <use xlink:href="#DejaVuSans-c" transform="translate(1085.078125 0)"/>
    </g>
   </g>
   <g id="legend_2">
    <g id="patch_90">
     <path d="M 684.796562 97.937656 
L 768.738437 97.937656 
Q 770.538437 97.937656 770.538437 96.137656 
L 770.538437 83.536953 
Q 770.538437 81.736953 768.738437 81.736953 
L 684.796562 81.736953 
Q 682.996562 81.736953 682.996562 83.536953 
L 682.996562 96.137656 
Q 682.996562 97.937656 684.796562 97.937656 
z
" style="fill: #ffffff; opacity: 0.85; stroke: #cccccc; stroke-linejoin: miter"/>
    </g>
    <g id="line2d_60">
     <path d="M 686.596562 89.025547 
L 695.596562 89.025547 
L 704.596562 89.025547 
" style="fill: none; stroke-dasharray: 4.44,1.92; stroke-dashoffset: 0; stroke: #808080; stroke-width: 1.2"/>
    </g>
    <g id="text_31">
     <!-- Mean: 13.6s -->
     <g transform="translate(711.796562 92.175547) scale(0.09 -0.09)">
      <use xlink:href="#DejaVuSans-30"/>
      <use xlink:href="#DejaVuSans-48" transform="translate(86.28125 0)"/>
      <use xlink:href="#DejaVuSans-44" transform="translate(147.8125 0)"/>
      <use xlink:href="#DejaVuSans-51" transform="translate(209.09375 0)"/>
      <use xlink:href="#DejaVuSans-1d" transform="translate(272.46875 0)"/>
      <use xlink:href="#DejaVuSans-3" transform="translate(306.15625 0)"/>
      <use xlink:href="#DejaVuSans-14" transform="translate(337.9375 0)"/>
      <use xlink:href="#DejaVuSans-16" transform="translate(401.5625 0)"/>
      <use xlink:href="#DejaVuSans-11" transform="translate(465.1875 0)"/>
      <use xlink:href="#DejaVuSans-19" transform="translate(496.96875 0)"/>
      <use xlink:href="#DejaVuSans-56" transform="translate(560.59375 0)"/>
     </g>
    </g>
   </g>
  </g>
  <g id="text_32">
   <!-- Data Skew: Stage Wall-Clock Time = Slowest Task (95s skewed vs. 24s salted) -->
   <g transform="translate(156.505 16.318125) scale(0.12 -0.12)">
    <defs>
     <path id="DejaVuSans-3a" d="M 213 4666 
L 850 4666 
L 1831 722 
L 2809 4666 
L 3519 4666 
L 4500 722 
L 5478 4666 
L 6119 4666 
L 4947 0 
L 4153 0 
L 3169 4050 
L 2175 0 
L 1381 0 
L 213 4666 
z
" transform="scale(0.015625)"/>
     <path id="DejaVuSans-10" d="M 313 2009 
L 1997 2009 
L 1997 1497 
L 313 1497 
L 313 2009 
z
" transform="scale(0.015625)"/>
     <path id="DejaVuSans-26" d="M 4122 4306 
L 4122 3641 
Q 3803 3938 3442 4084 
Q 3081 4231 2675 4231 
Q 1875 4231 1450 3742 
Q 1025 3253 1025 2328 
Q 1025 1406 1450 917 
Q 1875 428 2675 428 
Q 3081 428 3442 575 
Q 3803 722 4122 1019 
L 4122 359 
Q 3791 134 3420 21 
Q 3050 -91 2638 -91 
Q 1578 -91 968 557 
Q 359 1206 359 2328 
Q 359 3453 968 4101 
Q 1578 4750 2638 4750 
Q 3056 4750 3426 4639 
Q 3797 4528 4122 4306 
z
" transform="scale(0.015625)"/>
     <path id="DejaVuSans-50" d="M 3328 2828 
Q 3544 3216 3844 3400 
Q 4144 3584 4550 3584 
Q 5097 3584 5394 3201 
Q 5691 2819 5691 2113 
L 5691 0 
L 5113 0 
L 5113 2094 
Q 5113 2597 4934 2840 
Q 4756 3084 4391 3084 
Q 3944 3084 3684 2787 
Q 3425 2491 3425 1978 
L 3425 0 
L 2847 0 
L 2847 2094 
Q 2847 2600 2669 2842 
Q 2491 3084 2119 3084 
Q 1678 3084 1418 2786 
Q 1159 2488 1159 1978 
L 1159 0 
L 581 0 
L 581 3500 
L 1159 3500 
L 1159 2956 
Q 1356 3278 1631 3431 
Q 1906 3584 2284 3584 
Q 2666 3584 2933 3390 
Q 3200 3197 3328 2828 
z
" transform="scale(0.015625)"/>
     <path id="DejaVuSans-20" d="M 678 2906 
L 4684 2906 
L 4684 2381 
L 678 2381 
L 678 2906 
z
M 678 1631 
L 4684 1631 
L 4684 1100 
L 678 1100 
L 678 1631 
z
" transform="scale(0.015625)"/>
     <path id="DejaVuSans-59" d="M 191 3500 
L 800 3500 
L 1894 563 
L 2988 3500 
L 3597 3500 
L 2284 0 
L 1503 0 
L 191 3500 
z
" transform="scale(0.015625)"/>
    </defs>
    <use xlink:href="#DejaVuSans-27"/>
    <use xlink:href="#DejaVuSans-44" transform="translate(77 0)"/>
    <use xlink:href="#DejaVuSans-57" transform="translate(138.28125 0)"/>
    <use xlink:href="#DejaVuSans-44" transform="translate(177.484375 0)"/>
    <use xlink:href="#DejaVuSans-3" transform="translate(238.765625 0)"/>
    <use xlink:href="#DejaVuSans-36" transform="translate(270.546875 0)"/>
    <use xlink:href="#DejaVuSans-4e" transform="translate(334.03125 0)"/>
    <use xlink:href="#DejaVuSans-48" transform="translate(388.375 0)"/>
    <use xlink:href="#DejaVuSans-5a" transform="translate(449.90625 0)"/>
    <use xlink:href="#DejaVuSans-1d" transform="translate(526.21875 0)"/>
    <use xlink:href="#DejaVuSans-3" transform="translate(559.90625 0)"/>
    <use xlink:href="#DejaVuSans-36" transform="translate(591.6875 0)"/>
    <use xlink:href="#DejaVuSans-57" transform="translate(655.171875 0)"/>
    <use xlink:href="#DejaVuSans-44" transform="translate(694.375 0)"/>
    <use xlink:href="#DejaVuSans-4a" transform="translate(755.65625 0)"/>
    <use xlink:href="#DejaVuSans-48" transform="translate(819.140625 0)"/>
    <use xlink:href="#DejaVuSans-3" transform="translate(880.671875 0)"/>
    <use xlink:href="#DejaVuSans-3a" transform="translate(912.453125 0)"/>
    <use xlink:href="#DejaVuSans-44" transform="translate(1004.9375 0)"/>
    <use xlink:href="#DejaVuSans-4f" transform="translate(1066.21875 0)"/>
    <use xlink:href="#DejaVuSans-4f" transform="translate(1094 0)"/>
    <use xlink:href="#DejaVuSans-10" transform="translate(1121.78125 0)"/>
    <use xlink:href="#DejaVuSans-26" transform="translate(1157.859375 0)"/>
    <use xlink:href="#DejaVuSans-4f" transform="translate(1227.6875 0)"/>
    <use xlink:href="#DejaVuSans-52" transform="translate(1255.46875 0)"/>
    <use xlink:href="#DejaVuSans-46" transform="translate(1316.65625 0)"/>
    <use xlink:href="#DejaVuSans-4e" transform="translate(1371.640625 0)"/>
    <use xlink:href="#DejaVuSans-3" transform="translate(1429.546875 0)"/>
    <use xlink:href="#DejaVuSans-37" transform="translate(1461.328125 0)"/>
    <use xlink:href="#DejaVuSans-4c" transform="translate(1519.328125 0)"/>
    <use xlink:href="#DejaVuSans-50" transform="translate(1547.109375 0)"/>
    <use xlink:href="#DejaVuSans-48" transform="translate(1644.515625 0)"/>
    <use xlink:href="#DejaVuSans-3" transform="translate(1706.046875 0)"/>
    <use xlink:href="#DejaVuSans-20" transform="translate(1737.828125 0)"/>
    <use xlink:href="#DejaVuSans-3" transform="translate(1821.625 0)"/>
    <use xlink:href="#DejaVuSans-36" transform="translate(1853.40625 0)"/>
    <use xlink:href="#DejaVuSans-4f" transform="translate(1916.890625 0)"/>
    <use xlink:href="#DejaVuSans-52" transform="translate(1944.671875 0)"/>
    <use xlink:href="#DejaVuSans-5a" transform="translate(2005.859375 0)"/>
    <use xlink:href="#DejaVuSans-48" transform="translate(2087.640625 0)"/>
    <use xlink:href="#DejaVuSans-56" transform="translate(2149.171875 0)"/>
    <use xlink:href="#DejaVuSans-57" transform="translate(2201.265625 0)"/>
    <use xlink:href="#DejaVuSans-3" transform="translate(2240.46875 0)"/>
    <use xlink:href="#DejaVuSans-37" transform="translate(2272.25 0)"/>
    <use xlink:href="#DejaVuSans-44" transform="translate(2316.78125 0)"/>
    <use xlink:href="#DejaVuSans-56" transform="translate(2378.0625 0)"/>
    <use xlink:href="#DejaVuSans-4e" transform="translate(2430.15625 0)"/>
    <use xlink:href="#DejaVuSans-3" transform="translate(2488.0625 0)"/>
    <use xlink:href="#DejaVuSans-b" transform="translate(2519.84375 0)"/>
    <use xlink:href="#DejaVuSans-1c" transform="translate(2558.859375 0)"/>
    <use xlink:href="#DejaVuSans-18" transform="translate(2622.484375 0)"/>
    <use xlink:href="#DejaVuSans-56" transform="translate(2686.109375 0)"/>
    <use xlink:href="#DejaVuSans-3" transform="translate(2738.203125 0)"/>
    <use xlink:href="#DejaVuSans-56" transform="translate(2769.984375 0)"/>
    <use xlink:href="#DejaVuSans-4e" transform="translate(2822.078125 0)"/>
    <use xlink:href="#DejaVuSans-48" transform="translate(2876.421875 0)"/>
    <use xlink:href="#DejaVuSans-5a" transform="translate(2937.953125 0)"/>
    <use xlink:href="#DejaVuSans-48" transform="translate(3019.734375 0)"/>
    <use xlink:href="#DejaVuSans-47" transform="translate(3081.265625 0)"/>
    <use xlink:href="#DejaVuSans-3" transform="translate(3144.75 0)"/>
    <use xlink:href="#DejaVuSans-59" transform="translate(3176.53125 0)"/>
    <use xlink:href="#DejaVuSans-56" transform="translate(3235.71875 0)"/>
    <use xlink:href="#DejaVuSans-11" transform="translate(3287.8125 0)"/>
    <use xlink:href="#DejaVuSans-3" transform="translate(3319.59375 0)"/>
    <use xlink:href="#DejaVuSans-15" transform="translate(3351.375 0)"/>
    <use xlink:href="#DejaVuSans-17" transform="translate(3415 0)"/>
    <use xlink:href="#DejaVuSans-56" transform="translate(3478.625 0)"/>
    <use xlink:href="#DejaVuSans-3" transform="translate(3530.71875 0)"/>
    <use xlink:href="#DejaVuSans-56" transform="translate(3562.5 0)"/>
    <use xlink:href="#DejaVuSans-44" transform="translate(3614.59375 0)"/>
    <use xlink:href="#DejaVuSans-4f" transform="translate(3675.875 0)"/>
    <use xlink:href="#DejaVuSans-57" transform="translate(3703.65625 0)"/>
    <use xlink:href="#DejaVuSans-48" transform="translate(3742.859375 0)"/>
    <use xlink:href="#DejaVuSans-47" transform="translate(3804.390625 0)"/>
    <use xlink:href="#DejaVuSans-c" transform="translate(3867.875 0)"/>
   </g>
  </g>
 </g>
 <defs>
  <clipPath id="p7650093568">
   <rect x="44.698438" y="77.236953" width="357.23" height="236.383047"/>
  </clipPath>
  <clipPath id="p3a029f097d">
   <rect x="417.808438" y="77.236953" width="357.23" height="236.383047"/>
  </clipPath>
 </defs>
</svg>
